<svg width="26" height="29" viewBox="0 0 26 29" fill="none" xmlns="http://www.w3.org/2000/svg">
<path d="M13.1295 0V2.34268L11.1051 1.22712L11.0039 1.16297L11.7809 0.730695C12.156 0.524315 12.5282 0.309569 12.9092 0.111557C12.9799 0.0698006 13.0535 0.0325311 13.1295 0Z" fill="#B9B8EB"/>
<path d="M13.041 0V2.34268L15.0654 1.22712L15.1666 1.16297L14.3837 0.711172C14.0086 0.504793 13.6364 0.290047 13.2554 0.0920345C13.1861 0.057162 13.1145 0.0264224 13.041 0Z" fill="#B9B8EB"/>
<path d="M12.229 28.1681L10.6511 27.2924L1.53242 22.2361C1.13132 22.091 0.792096 21.8266 0.566778 21.4836C0.341461 21.1405 0.242488 20.7377 0.285038 20.3368C0.285038 17.6855 0.29 15.0342 0.299923 12.3829C0.303665 12.1074 0.389195 11.8384 0.546936 11.6059C0.704676 11.3734 0.928396 11.1866 1.19304 11.0665C3.17774 9.95095 5.16243 8.84376 7.14713 7.74493C7.78223 7.39353 8.41337 7.03934 9.04053 6.68236C9.11674 6.62965 9.20759 6.59872 9.30214 6.59327C9.39669 6.58783 9.4909 6.60811 9.57342 6.65168L12.0325 7.99872L10.9578 8.5816L3.66696 12.5502C3.44957 12.6546 3.26868 12.8151 3.14574 13.0128C3.02279 13.2106 2.96295 13.4372 2.97331 13.6658C2.97331 15.5427 2.97331 17.4169 2.97331 19.2938C2.97331 19.3607 2.97331 19.4277 2.97331 19.4946C2.96368 19.7019 3.0192 19.9072 3.13298 20.0852C3.24676 20.2632 3.41379 20.4059 3.61338 20.4958C6.32249 21.9832 9.02664 23.4827 11.7258 24.9943C11.8955 25.0891 12.1218 25.1617 12.2081 25.3039C12.2944 25.4461 12.2319 25.6581 12.2319 25.8421L12.229 28.1681Z" fill="#B9B8EB"/>
<path d="M13.1287 4.02175V6.9501L9.93728 5.18751C9.77187 5.0859 9.57837 5.03176 9.38057 5.03176C9.18277 5.03176 8.98927 5.0859 8.82386 5.18751L5.46873 7.01983L0.348209 9.82826C0.334099 9.8355 0.319105 9.84112 0.303554 9.84499C0.303554 9.13661 0.279737 8.45054 0.303554 7.74215C0.31786 7.48051 0.404381 7.22681 0.554661 7.00586C0.704941 6.78491 0.91384 6.60426 1.16094 6.48157C3.68548 5.07038 6.20803 3.66756 8.7286 2.27311C8.91767 2.15766 9.1385 2.09619 9.36419 2.09619C9.58989 2.09619 9.81072 2.15766 9.9998 2.27311L13.1287 4.02175Z" fill="#B9B8EB"/>
<path d="M8.17369 21.3518C8.11118 21.3267 8.0695 21.3127 8.0308 21.2932C7.15852 20.8135 6.28327 20.3394 5.41099 19.8569C4.66673 19.4441 4.44048 18.2951 4.9823 17.6871C5.11627 17.5337 5.28 17.4082 5.43481 17.266C5.88119 16.8041 6.14768 16.2144 6.19098 15.5927C6.21051 15.4457 6.24541 15.3009 6.29518 15.1604C6.312 15.13 6.33655 15.1039 6.36666 15.0844C6.39677 15.065 6.43151 15.0528 6.46785 15.0488C6.51548 15.0488 6.57502 15.1353 6.59884 15.1938C6.68517 15.4225 6.75067 15.654 6.83998 15.8799C6.90929 16.1156 6.89571 16.366 6.80128 16.5939C6.69925 17.0178 6.4564 17.4006 6.10762 17.6871C5.38122 18.2449 5.62237 19.472 6.68219 19.8095C6.94679 19.8972 7.19878 20.0152 7.43241 20.1609C7.55872 20.2577 7.66042 20.3796 7.73011 20.5179C7.88492 20.7828 8.01889 21.0561 8.17369 21.3518Z" fill="#B9B8EB"/>
<path d="M7.90106 11.6912C7.81408 12.1512 7.56954 12.5722 7.20443 12.8904C6.77871 13.2306 6.3649 13.5876 5.91537 13.9C5.35002 14.3038 4.93785 14.8668 4.73943 15.5064C4.7349 15.5216 4.7266 15.5356 4.71522 15.5472C4.70385 15.5588 4.6897 15.5678 4.67394 15.5733C4.67394 15.4924 4.67394 15.4116 4.67394 15.3279C4.67394 14.9904 4.68882 14.653 4.67394 14.3155C4.6549 14.097 4.70381 13.8781 4.81475 13.685C4.92569 13.492 5.09392 13.3332 5.29912 13.2278C5.86773 12.8988 6.4304 12.5697 6.99306 12.2378C7.22824 12.1011 7.45748 11.9589 7.68671 11.8111L7.90106 11.6912Z" fill="#B9B8EB"/>
<path d="M11.7637 18.0692H13.1272V8.94393L13.1034 8.9021C12.2103 10.4723 11.1088 10.8069 9.70661 11.0384C8.44136 11.2476 7.86679 11.7942 7.74771 13.0436C8.81349 12.4858 11.0909 12.5416 11.862 13.197C12.2728 13.5484 12.7551 15.2999 12.1597 16.2815C12.1292 16.2236 12.1052 16.1629 12.0882 16.1003C11.9692 14.7309 11.6298 14.5608 10.302 15.0182C9.8287 15.1426 9.32553 15.1241 8.8641 14.9652C8.35503 14.8034 7.91145 14.4464 7.37558 14.148C6.81292 16.0501 8.00672 17.3664 8.89983 18.7637L8.73311 18.8585L7.33986 17.57C7.63756 19.5055 9.21242 21.4578 10.6146 22.604C11.293 23.2082 12.1884 23.5524 13.1243 23.569V21.9626C12.9516 21.9626 12.773 21.9626 12.5914 21.9626C11.9424 21.9347 11.8888 21.3685 11.4273 21.1259H13.1243V20.4872H10.5134C11.3092 20.0564 12.2057 19.8151 13.1243 19.7844V19.2266C12.6624 19.0237 12.2159 18.7917 11.7876 18.5322C11.6 18.4095 11.5405 18.1139 11.4244 17.8963L11.5762 17.8099C11.6625 17.9214 11.7489 18.0441 11.7637 18.0692Z" fill="#B9B8EB"/>
<path d="M11.3494 14.5216C10.2717 14.6359 9.21188 15.2188 8.53906 13.9945C9.56317 13.7212 10.4831 13.6961 11.3494 14.5216Z" fill="#B9B8EB"/>
<path d="M13.9416 28.1678L15.5194 27.2921L24.6381 22.2413C25.0392 22.0962 25.3785 21.8319 25.6038 21.4888C25.8291 21.1457 25.9281 20.7429 25.8855 20.3421C25.8855 17.6908 25.8855 15.0395 25.8855 12.3881C25.8818 12.1127 25.7963 11.8436 25.6385 11.6111C25.4808 11.3786 25.257 11.1919 24.9924 11.0718C23.0077 9.9562 21.023 8.84901 19.0383 7.75018C18.4052 7.39878 17.7741 7.04459 17.1449 6.68761C17.0687 6.6349 16.9779 6.60397 16.8833 6.59852C16.7888 6.59308 16.6945 6.61336 16.612 6.65693L14.153 8.00397L15.2277 8.58685L22.5185 12.5499C22.7361 12.654 22.9172 12.8144 23.0402 13.0122C23.1632 13.21 23.2229 13.4368 23.2121 13.6655C23.2121 15.5424 23.2121 17.4165 23.2121 19.2935C23.2121 19.3604 23.2121 19.4273 23.2121 19.4943C23.2218 19.7015 23.1662 19.9069 23.0525 20.0848C22.9387 20.2628 22.7717 20.4056 22.5721 20.4955C19.863 21.9829 17.1588 23.4824 14.4596 24.994C14.2899 25.0888 14.0637 25.1613 13.9773 25.3036C13.891 25.4458 13.9535 25.6578 13.9535 25.8418L13.9416 28.1678Z" fill="#B9B8EB"/>
<path d="M13.041 4.02175V6.9501L16.2324 5.18751C16.3978 5.0859 16.5913 5.03176 16.7891 5.03176C16.9869 5.03176 17.1804 5.0859 17.3458 5.18751L20.701 7.01983L25.8215 9.82826C25.8356 9.8355 25.8506 9.84112 25.8661 9.84499C25.8661 9.13661 25.89 8.45054 25.8661 7.74215C25.8518 7.48051 25.7653 7.22681 25.615 7.00586C25.4647 6.78491 25.2558 6.60426 25.0087 6.48157C22.4902 5.07038 19.9666 3.66756 17.4381 2.27311C17.249 2.15766 17.0282 2.09619 16.8025 2.09619C16.5768 2.09619 16.356 2.15766 16.1669 2.27311L13.041 4.02175Z" fill="#B9B8EB"/>
<path d="M17.9961 21.3518C18.0448 21.3346 18.0925 21.315 18.139 21.2932C19.0113 20.8135 19.8895 20.3394 20.7588 19.8569C21.5031 19.4441 21.7293 18.2951 21.1875 17.6871C21.0535 17.5337 20.8898 17.4082 20.738 17.266C20.2897 16.805 20.022 16.2149 19.9788 15.5927C19.9593 15.4457 19.9244 15.3009 19.8746 15.1604C19.8578 15.13 19.8332 15.1039 19.8031 15.0844C19.773 15.065 19.7383 15.0528 19.7019 15.0488C19.6543 15.0488 19.5948 15.1353 19.571 15.1938C19.4846 15.4225 19.4191 15.654 19.3298 15.8799C19.2605 16.1156 19.2741 16.366 19.3685 16.5939C19.4705 17.0178 19.7134 17.4006 20.0622 17.6871C20.7886 18.2449 20.5474 19.472 19.4876 19.8095C19.223 19.8972 18.971 20.0152 18.7374 20.1609C18.6111 20.2577 18.5094 20.3796 18.4397 20.5179C18.2849 20.7828 18.1539 21.0561 17.9961 21.3518Z" fill="#B9B8EB"/>
<path d="M18.2695 11.691C18.3565 12.1511 18.601 12.572 18.9662 12.8903C19.3919 13.2305 19.8057 13.5875 20.2552 13.8999C20.8261 14.3015 21.2437 14.8648 21.446 15.5063C21.4506 15.5215 21.4589 15.5354 21.4702 15.5471C21.4816 15.5587 21.4958 15.5676 21.5115 15.5732C21.5115 15.4923 21.5115 15.4114 21.5115 15.3278C21.5115 14.9903 21.5115 14.6529 21.5115 14.3154C21.5295 14.0967 21.4799 13.8778 21.3685 13.6849C21.257 13.492 21.0886 13.3333 20.8834 13.2277C20.3148 12.8986 19.7521 12.5695 19.1894 12.2377C18.9543 12.101 18.728 11.9588 18.4958 11.811L18.2695 11.691Z" fill="#B9B8EB"/>
<path d="M14.5894 17.7988L14.7412 17.8852C14.6251 18.1028 14.5655 18.3984 14.378 18.5211C13.9497 18.7806 13.5031 19.0126 13.0413 19.2155V19.7733C13.9599 19.804 14.8564 20.0453 15.6522 20.4761H13.0413V21.1148H14.7382C14.2768 21.3658 14.2232 21.9319 13.5742 21.9515C13.3926 21.9515 13.214 21.9654 13.0413 21.9515V23.5579C13.9776 23.5406 14.873 23.1953 15.5509 22.5901C16.9561 21.4439 18.528 19.4916 18.8257 17.5561L17.4176 18.8502L17.2508 18.7554C18.144 17.3609 19.3348 16.0418 18.7751 14.1397C18.2541 14.4381 17.8105 14.7951 17.2866 14.9569C16.8251 15.1158 16.322 15.1343 15.8487 15.0099C14.5209 14.5525 14.1815 14.731 14.0624 16.092C14.0455 16.1546 14.0215 16.2153 13.991 16.2732C13.3956 15.2916 13.8778 13.5401 14.2887 13.1887C15.0597 12.5333 17.3372 12.4664 18.403 13.0353C18.2839 11.7859 17.7093 11.2393 16.4441 11.0301C15.0419 10.7986 13.9493 10.4723 13.0473 8.8938L13.0234 8.93563V18.0609H14.3869C14.4197 18.0442 14.506 17.9215 14.5894 17.7988Z" fill="#B9B8EB"/>
<path d="M14.8223 14.5216C15.9 14.6359 16.9598 15.2188 17.6326 13.9945C16.6085 13.7212 15.6886 13.6961 14.8223 14.5216Z" fill="#B9B8EB"/>
</svg>
