<svg width="25" height="30" viewBox="0 0 25 30" fill="none" xmlns="http://www.w3.org/2000/svg">
<path d="M9.90544 14.4371C9.14548 14.3777 8.37365 14.4371 7.61369 14.4569C7.62458 14.1441 7.72114 13.8402 7.89283 13.5785C8.06453 13.3168 8.30477 13.1072 8.58738 12.9726C8.81106 12.8333 9.02288 12.6757 9.22068 12.5016C8.77225 12.5045 8.33808 12.6595 7.98931 12.9414C7.64054 13.2233 7.39785 13.6153 7.301 14.0532C7.13871 14.6548 6.97643 15.2604 6.8379 15.8699C6.75703 16.1919 6.7237 16.5239 6.73894 16.8555C6.79436 17.4453 6.92498 18.0231 7.01997 18.5773L6.75478 18.3556C6.70332 18.8306 8.09262 20.4178 8.65863 20.5167C7.86701 19.0997 6.7429 17.7936 7.21392 15.9887C7.26986 16.008 7.32413 16.0318 7.3762 16.0599C7.71676 16.3109 8.11533 16.4716 8.53476 16.527C8.95418 16.5823 9.38079 16.5306 9.77482 16.3766C9.94002 16.3216 10.1117 16.2884 10.2854 16.2776C11.3818 16.1628 11.4729 16.2222 11.6708 17.3067C11.7092 17.2428 11.741 17.1752 11.7658 17.1049C11.9755 15.9689 11.7262 14.5717 9.90544 14.4371ZM8.97132 15.9174C8.85844 15.9358 8.74298 15.9307 8.63215 15.9025C8.52133 15.8742 8.41753 15.8234 8.32725 15.7532C8.23697 15.683 8.16215 15.5949 8.10747 15.4944C8.0528 15.3939 8.01945 15.2833 8.0095 15.1693C9.50171 14.8448 10.3844 15.0506 10.6654 15.767C10.1152 15.8185 9.54921 15.8897 8.9832 15.9174H8.97132Z" fill="#010052"/>
<path d="M12.561 25.2905V25.6507C11.7356 25.6319 10.9402 25.338 10.3009 24.8155C8.88592 23.7023 7.79297 22.2323 7.13442 20.5566C7.08692 20.4379 7.05526 20.3112 7.01172 20.1885C7.05922 20.1529 9.14119 23.4025 10.4632 24.5068C11.0493 25.0054 11.7916 25.2827 12.561 25.2905Z" fill="#010052"/>
<path d="M12.5614 9.86175V10.7484L12.5298 10.6969C12.2634 11.2317 11.8688 11.6922 11.3812 12.0375C10.8937 12.3829 10.3282 12.6022 9.73535 12.676C9.88711 12.447 10.0958 12.2615 10.3409 12.1377C10.7544 12.0014 11.1348 11.7804 11.4578 11.4887C11.7809 11.1969 12.0395 10.841 12.2171 10.4436C12.3002 10.2615 12.411 10.0953 12.5496 9.85779L12.5614 9.86175Z" fill="#010052"/>
<path d="M12.5611 19.9109V20.9757C12.1337 20.9757 11.1916 20.184 11.1006 19.6655C11.5612 19.8616 12.0617 19.9457 12.5611 19.9109Z" fill="#010052"/>
<path d="M12.5614 21.6053V22.2149H10.4121C11.0621 21.8253 11.8037 21.615 12.5614 21.6053Z" fill="#010052"/>
<path d="M12.5606 22.8597V23.7147C12.2738 23.6936 11.996 23.6052 11.7498 23.4567C11.5036 23.3081 11.2959 23.1036 11.1436 22.8597H12.5606Z" fill="#010052"/>
<path d="M13.3329 17.093C13.3542 17.164 13.3848 17.2318 13.4239 17.2948C13.6376 16.2103 13.7128 16.151 14.8092 16.2657C14.983 16.2765 15.1546 16.3097 15.3198 16.3647C15.7138 16.5191 16.1405 16.571 16.56 16.5156C16.9795 16.4603 17.3781 16.2994 17.7185 16.048C17.7709 16.0207 17.8251 15.9969 17.8807 15.9768C18.3518 17.7817 17.2474 19.0879 16.436 20.5049C17.002 20.4059 18.3913 18.8187 18.3438 18.3437L18.0747 18.5654C18.1697 18.0113 18.3003 17.4334 18.3557 16.8436C18.3669 16.5097 18.3268 16.1759 18.237 15.8541C18.1024 15.2446 17.9361 14.639 17.7739 14.0373C17.6734 13.6004 17.4277 13.2105 17.0768 12.9315C16.7258 12.6525 16.2906 12.501 15.8423 12.5016C16.0357 12.6807 16.2436 12.8435 16.4637 12.9884C16.7469 13.1223 16.9876 13.3317 17.1594 13.5936C17.3312 13.8555 17.4274 14.1597 17.4374 14.4727C16.6775 14.4727 15.9056 14.3936 15.1496 14.4529C13.3487 14.5717 13.1033 15.9689 13.3329 17.093ZM14.4015 15.767C14.6786 15.0506 15.5613 14.8448 17.0535 15.1694C17.0435 15.2833 17.0102 15.3939 16.9555 15.4944C16.9008 15.5949 16.826 15.683 16.7357 15.7532C16.6455 15.8234 16.5417 15.8742 16.4308 15.9025C16.32 15.9307 16.2045 15.9358 16.0917 15.9174C15.5257 15.8897 14.9636 15.8185 14.4015 15.767Z" fill="#010052"/>
<path d="M12.5137 25.2905V25.6507C13.3433 25.6352 14.1435 25.341 14.7856 24.8155C16.2006 23.7023 17.2936 22.2323 17.9521 20.5566C17.9996 20.4379 18.0313 20.3112 18.0748 20.1885C18.0273 20.1529 15.9454 23.4025 14.6273 24.5068C14.0367 25.0083 13.2884 25.2857 12.5137 25.2905Z" fill="#010052"/>
<path d="M12.5137 9.86175V10.7484L12.5453 10.6969C12.8117 11.2317 13.2063 11.6922 13.6939 12.0375C14.1815 12.3829 14.7469 12.6022 15.3398 12.676C15.188 12.447 14.9793 12.2615 14.7342 12.1377C14.3213 12.0014 13.9414 11.7803 13.619 11.4885C13.2966 11.1968 13.0387 10.8409 12.862 10.4436C12.7749 10.2615 12.6641 10.0953 12.5255 9.85779L12.5137 9.86175Z" fill="#010052"/>
<path d="M12.5137 19.9109V20.9757C12.9451 20.9757 13.8832 20.184 13.9742 19.6655C13.5136 19.8616 13.0131 19.9457 12.5137 19.9109Z" fill="#010052"/>
<path d="M12.5137 21.6053V22.2149H14.655C14.0074 21.8267 13.2687 21.6164 12.5137 21.6053Z" fill="#010052"/>
<path d="M12.5137 22.8597V23.7147C12.8004 23.6936 13.0782 23.6052 13.3244 23.4567C13.5706 23.3081 13.7783 23.1036 13.9307 22.8597H12.5137Z" fill="#010052"/>
<path d="M11.6624 29.7588L10.1227 28.8484L1.21692 23.5841C0.827482 23.4309 0.498777 23.1547 0.280846 22.7974C0.0629154 22.4401 -0.032302 22.0215 0.00969185 21.6051C0.00969185 18.8423 0.00969185 16.0809 0.00969185 13.3208C0.0130988 13.0336 0.0963545 12.753 0.250142 12.5105C0.40393 12.2679 0.622183 12.0729 0.880478 11.9473L6.70287 8.48795C7.32034 8.12116 7.93648 7.75174 8.55131 7.37968C8.6249 7.32366 8.71345 7.29075 8.80576 7.28511C8.89807 7.27947 8.98997 7.30137 9.06982 7.34801L11.4882 8.74918L10.4393 9.35873C8.06446 10.7414 5.68959 12.1215 3.31472 13.4989C3.09927 13.61 2.92088 13.7815 2.80137 13.9924C2.68187 14.2033 2.62643 14.4444 2.64184 14.6863C2.64184 16.6416 2.64184 18.5969 2.64184 20.5522C2.64184 20.6195 2.64184 20.6908 2.64184 20.7581C2.63319 20.9742 2.68774 21.1881 2.79881 21.3737C2.90989 21.5593 3.07267 21.7085 3.26722 21.803C5.90597 23.3572 8.54472 24.9193 11.1835 26.4894C11.3497 26.5883 11.5793 26.6635 11.6584 26.81C11.7376 26.9564 11.6822 27.1821 11.6822 27.372L11.6624 29.7588Z" fill="#010052"/>
<path d="M12.5371 4.60906V7.66076L9.42207 5.8242C9.2613 5.71765 9.07269 5.66083 8.87981 5.66083C8.68693 5.66083 8.49833 5.71765 8.33755 5.8242L5.06023 7.732C3.39782 8.70966 1.73145 9.67939 0.0650819 10.657L0.0175849 10.6768C0.0175849 9.93667 -0.00220571 9.21233 0.0175849 8.48404C0.0317859 8.21161 0.116139 7.94748 0.262464 7.71724C0.408789 7.487 0.612123 7.29848 0.852748 7.16996C3.31206 5.70546 5.77269 4.24756 8.23464 2.79626C8.41862 2.67537 8.63395 2.61096 8.85408 2.61096C9.07422 2.61096 9.28955 2.67537 9.47353 2.79626L12.5371 4.60906Z" fill="#010052"/>
<path d="M12.538 0.409302V2.85145L10.5589 1.66402L10.46 1.59673L11.2199 1.14551C11.5841 0.931771 11.9482 0.71012 12.3203 0.504298C12.3899 0.466279 12.4627 0.434488 12.538 0.409302Z" fill="#010052"/>
<path d="M7.70047 22.666L7.56589 22.6027C6.71094 22.104 5.85598 21.6092 5.00499 21.1065C4.82742 20.9855 4.67565 20.8305 4.55847 20.6504C4.4413 20.4703 4.36105 20.2687 4.32239 20.0574C4.28372 19.846 4.28742 19.6291 4.33325 19.4192C4.37909 19.2093 4.46615 19.0106 4.58939 18.8346C4.72 18.6762 4.88229 18.5417 5.02874 18.3952C5.46265 17.9134 5.72316 17.3004 5.76891 16.6537C5.78721 16.5013 5.8217 16.3514 5.87182 16.2064C5.88741 16.1743 5.91079 16.1466 5.93983 16.1259C5.96887 16.1051 6.00264 16.092 6.03806 16.0876C6.0816 16.0876 6.14493 16.1787 6.16472 16.2381C6.2518 16.4755 6.31513 16.7209 6.4022 16.9545C6.4692 17.2003 6.45532 17.4612 6.36262 17.6986C6.26302 18.1394 6.02601 18.5372 5.68578 18.8346C4.97728 19.4164 5.21081 20.6909 6.24784 21.0432C6.50645 21.1346 6.75248 21.2583 6.98009 21.4113C7.10348 21.5127 7.20341 21.6396 7.27299 21.7834C7.4234 22.0723 7.55006 22.3573 7.70047 22.666Z" fill="#010052"/>
<path d="M7.43517 12.6006C7.34789 13.0777 7.1108 13.5144 6.75833 13.8474C6.33877 14.2037 5.93504 14.5718 5.49965 14.9003C4.95165 15.3225 4.55349 15.9093 4.36367 16.5746C4.35883 16.5903 4.35067 16.6048 4.33975 16.6171C4.32882 16.6294 4.31538 16.6392 4.30034 16.6458C4.30034 16.5587 4.30034 16.4717 4.30034 16.3886C4.30034 16.0363 4.30034 15.684 4.30034 15.3317C4.28291 15.104 4.33152 14.8761 4.44034 14.6754C4.54915 14.4746 4.71356 14.3094 4.91385 14.1997C5.46798 13.8593 6.01948 13.515 6.56834 13.1667C6.79395 13.0242 7.01956 12.8698 7.24518 12.7233C7.30059 12.6798 7.36788 12.6402 7.43517 12.6006Z" fill="#010052"/>
<path d="M13.3329 29.7587L14.8726 28.8484L23.7586 23.5841C24.2 23.3799 24.5647 23.0402 24.7995 22.6143C24.932 22.295 24.9915 21.9502 24.9737 21.605C24.9737 18.8423 24.9737 16.0808 24.9737 13.3207C24.9686 13.0334 24.8842 12.7531 24.7298 12.5108C24.5755 12.2684 24.3571 12.0734 24.099 11.9473L18.2766 8.48789L16.4281 7.37962C16.3545 7.3236 16.266 7.29069 16.1737 7.28505C16.0814 7.27941 15.9895 7.3013 15.9096 7.34795L13.511 8.74912L14.5599 9.35867C16.9348 10.7414 19.3096 12.1214 21.6845 13.4988C21.8997 13.6105 22.0781 13.782 22.1981 13.9927C22.3182 14.2033 22.3749 14.4442 22.3613 14.6863C22.3613 16.6416 22.3613 18.5969 22.3613 20.5522C22.3613 20.6195 22.3613 20.6907 22.3613 20.758C22.37 20.9741 22.3154 21.1881 22.2044 21.3737C22.0933 21.5593 21.9305 21.7084 21.736 21.8029C19.0972 23.3571 16.4585 24.9193 13.8197 26.4893C13.6535 26.5883 13.4239 26.6635 13.3448 26.8099C13.2656 26.9564 13.3448 27.182 13.3448 27.372C13.3289 28.1438 13.3329 28.9354 13.3329 29.7587Z" fill="#010052"/>
<path d="M12.4541 4.60929V7.66098L15.5691 5.82442C15.7307 5.71802 15.9199 5.66132 16.1134 5.66132C16.3068 5.66132 16.4961 5.71802 16.6576 5.82442L19.931 7.73223L24.9459 10.6494L24.9895 10.6691C24.9895 9.92897 25.0132 9.20464 24.9895 8.47635C24.9749 8.20353 24.8899 7.93913 24.7429 7.70886C24.5958 7.47858 24.3917 7.29028 24.1503 7.16226C21.691 5.69777 19.2304 4.23987 16.7684 2.78856C16.5845 2.66768 16.3691 2.60327 16.149 2.60327C15.9289 2.60327 15.7135 2.66768 15.5296 2.78856L12.4541 4.60929Z" fill="#010052"/>
<path d="M12.4541 0.409302V2.85145L14.4332 1.66402L14.5321 1.59673L13.7761 1.14551C13.408 0.931771 13.0439 0.71012 12.6718 0.504298C12.6022 0.466279 12.5293 0.434488 12.4541 0.409302Z" fill="#010052"/>
<path d="M17.291 22.666L17.4295 22.6026C18.2805 22.1039 19.1355 21.6092 19.9865 21.1065C20.3415 20.8622 20.5851 20.487 20.6638 20.0632C20.7425 19.6395 20.6498 19.2019 20.4061 18.8464C20.2715 18.6881 20.1092 18.5535 19.9627 18.4071C19.5288 17.9252 19.2683 17.3123 19.2226 16.6655C19.2056 16.5133 19.1724 16.3634 19.1236 16.2182C19.1071 16.1861 19.0829 16.1584 19.0533 16.1377C19.0236 16.117 18.9893 16.1039 18.9534 16.0995C18.9099 16.0995 18.8505 16.1905 18.8268 16.2499C18.7436 16.4874 18.6764 16.7328 18.5893 16.9663C18.5223 17.2122 18.5362 17.4731 18.6289 17.7104C18.7277 18.1527 18.9648 18.5519 19.3057 18.8504C20.0142 19.4322 19.7807 20.7067 18.7436 21.059C18.4863 21.1504 18.2416 21.2741 18.0153 21.4271C17.8897 21.5262 17.7893 21.6537 17.7224 21.7992C17.572 22.0723 17.4256 22.3572 17.291 22.666Z" fill="#010052"/>
<path d="M17.5557 12.6006C17.6427 13.0786 17.8814 13.5158 18.2365 13.8474C18.6323 14.2036 19.0558 14.5717 19.4912 14.9002C20.0451 15.3201 20.449 15.9072 20.643 16.5745C20.6478 16.5902 20.656 16.6047 20.6669 16.617C20.6778 16.6293 20.6913 16.6391 20.7063 16.6458C20.7063 16.5587 20.7063 16.4716 20.7063 16.3885C20.7063 16.0362 20.7063 15.6839 20.7063 15.3317C20.7237 15.104 20.6751 14.8761 20.5663 14.6753C20.4575 14.4745 20.2931 14.3094 20.0928 14.1997C19.5426 13.8593 18.9885 13.5149 18.4423 13.1666C18.2127 13.0241 17.9911 12.8697 17.7654 12.7233L17.5557 12.6006Z" fill="#010052"/>
</svg>
