<svg width="110" height="127" viewBox="0 0 110 127" fill="none" xmlns="http://www.w3.org/2000/svg">
<path d="M47.7044 39.9078C45.5765 39.7416 43.4153 39.9078 41.2875 39.9632C41.318 39.0873 41.5883 38.2366 42.0691 37.5037C42.5498 36.7709 43.2225 36.1841 44.0138 35.8072C44.6401 35.4171 45.2332 34.976 45.787 34.4884C44.5314 34.4964 43.3158 34.9307 42.3392 35.72C41.3627 36.5093 40.6831 37.6068 40.4119 38.8328C39.9575 40.5174 39.5031 42.213 39.1153 43.9197C38.8888 44.8212 38.7955 45.7509 38.8382 46.6793C38.9933 48.3306 39.3591 49.9487 39.6251 51.5003L38.8825 50.8796C38.7384 52.2096 42.6285 56.6537 44.2133 56.9308C41.9968 52.9632 38.8493 49.3059 40.1681 44.2522C40.3247 44.3063 40.4767 44.373 40.6225 44.4517C41.5761 45.1545 42.6921 45.6044 43.8665 45.7594C45.0408 45.9144 46.2354 45.7696 47.3386 45.3383C47.8012 45.1845 48.2818 45.0913 48.7683 45.0612C51.8382 44.7399 52.0931 44.9061 52.6473 47.9427C52.7549 47.7639 52.844 47.5745 52.9132 47.3775C53.5006 44.1968 52.8024 40.2846 47.7044 39.9078ZM45.0888 44.0527C44.7728 44.1043 44.4495 44.09 44.1392 44.0109C43.8288 43.9317 43.5382 43.7894 43.2854 43.5928C43.0326 43.3962 42.8232 43.1496 42.6701 42.8683C42.517 42.587 42.4236 42.2771 42.3957 41.9581C46.5739 41.0493 49.0454 41.6256 49.8322 43.6316C48.2917 43.7757 46.7069 43.9752 45.1221 44.0527H45.0888Z" fill="#010052"/>
<path d="M55.1395 70.2973V71.3059C52.8285 71.2533 50.6012 70.4302 48.8113 68.9674C44.8493 65.8504 41.7891 61.7343 39.9451 57.0425C39.8121 56.71 39.7235 56.3554 39.6016 56.0118C39.7346 55.9121 45.5641 65.0109 49.2657 68.103C50.9067 69.499 52.9852 70.2754 55.1395 70.2973Z" fill="#010052"/>
<path d="M55.1406 27.0969V29.5794L55.0519 29.4353C54.306 30.9327 53.2012 32.2223 51.836 33.1891C50.4708 34.156 48.8876 34.7701 47.2275 34.9767C47.6525 34.3357 48.2368 33.8163 48.9232 33.4694C50.0807 33.088 51.1459 32.469 52.0505 31.6522C52.9551 30.8354 53.6792 29.8388 54.1764 28.7261C54.4091 28.2162 54.7195 27.7508 55.1074 27.0858L55.1406 27.0969Z" fill="#010052"/>
<path d="M55.1403 55.2346V58.2158C53.9434 58.2158 51.3057 55.9993 51.0508 54.5475C52.3405 55.0966 53.742 55.3321 55.1403 55.2346Z" fill="#010052"/>
<path d="M55.141 59.9789V61.6856H49.123C50.9429 60.5948 53.0194 60.0059 55.141 59.9789Z" fill="#010052"/>
<path d="M55.1385 63.4912V65.8851C54.3355 65.8261 53.5578 65.5786 52.8684 65.1627C52.179 64.7467 51.5974 64.1741 51.1709 63.4912H55.1385Z" fill="#010052"/>
<path d="M57.3006 47.3443C57.3604 47.543 57.4461 47.7331 57.5555 47.9095C58.1539 44.8729 58.3645 44.7066 61.4344 45.028C61.921 45.0581 62.4015 45.1512 62.8641 45.3051C63.9672 45.7374 65.1619 45.8828 66.3365 45.7277C67.511 45.5727 68.6271 45.1222 69.5802 44.4185C69.727 44.3418 69.8788 44.2751 70.0346 44.219C71.3534 49.2727 68.2614 52.9299 65.9894 56.8975C67.5742 56.6205 71.4643 52.1763 71.3313 50.8464L70.5777 51.467C70.8436 49.9155 71.2094 48.2974 71.3645 46.6461C71.3958 45.711 71.2836 44.7766 71.0321 43.8754C70.6552 42.1687 70.1898 40.473 69.7354 38.7885C69.4542 37.5651 68.766 36.4735 67.7835 35.6923C66.8009 34.9111 65.5823 34.4866 64.327 34.4884C64.8686 34.9898 65.4505 35.4458 66.067 35.8516C66.8598 36.2264 67.5339 36.8127 68.0149 37.546C68.4959 38.2793 68.7653 39.131 68.7933 40.0076C66.6655 40.0076 64.5043 39.7859 62.3875 39.9521C57.3449 40.2846 56.6578 44.1968 57.3006 47.3443ZM60.2929 43.6316C61.0687 41.6256 63.5401 41.0493 67.7183 41.9581C67.6905 42.2772 67.5971 42.587 67.444 42.8683C67.2909 43.1496 67.0814 43.3962 66.8286 43.5928C66.5758 43.7894 66.2852 43.9318 65.9749 44.0109C65.6646 44.09 65.3413 44.1043 65.0252 44.0527C63.4404 43.9752 61.8666 43.7757 60.2929 43.6316Z" fill="#010052"/>
<path d="M55.0068 70.2973V71.3059C57.3297 71.2624 59.5703 70.4387 61.3683 68.9674C65.3303 65.8504 68.3906 61.7343 70.2345 57.0425C70.3675 56.71 70.4562 56.3554 70.5781 56.0118C70.4451 55.9121 64.6156 65.0109 60.925 68.103C59.2714 69.507 57.1761 70.2839 55.0068 70.2973Z" fill="#010052"/>
<path d="M55.0068 27.0969V29.5794L55.0955 29.4353C55.8414 30.9327 56.9462 32.2223 58.3114 33.1891C59.6766 34.156 61.2598 34.7701 62.9199 34.9767C62.495 34.3357 61.9106 33.8163 61.2242 33.4694C60.0681 33.0879 59.0045 32.4688 58.1017 31.6519C57.199 30.835 56.477 29.8384 55.9821 28.7261C55.7383 28.2162 55.428 27.7508 55.0401 27.0858L55.0068 27.0969Z" fill="#010052"/>
<path d="M55.0068 55.2346V58.2158C56.2149 58.2158 58.8415 55.9993 59.0964 54.5475C57.8067 55.0966 56.4052 55.3321 55.0068 55.2346Z" fill="#010052"/>
<path d="M55.0068 59.9789V61.6856H61.0026C59.1892 60.5986 57.1209 60.0098 55.0068 59.9789Z" fill="#010052"/>
<path d="M55.0068 63.4912V65.8851C55.8098 65.8261 56.5876 65.5786 57.277 65.1627C57.9663 64.7467 58.5479 64.1741 58.9745 63.4912H55.0068Z" fill="#010052"/>
<path d="M52.6234 82.8087L48.3123 80.2597L23.3761 65.5197C22.2857 65.0908 21.3653 64.3172 20.7551 63.3169C20.1449 62.3166 19.8783 61.1442 19.9959 59.9784C19.9959 52.2427 19.9959 44.5107 19.9959 36.7824C20.0054 35.9783 20.2385 35.1927 20.6691 34.5135C21.0998 33.8343 21.7109 33.2884 22.4341 32.9367L38.7368 23.2505C40.4657 22.2235 42.1909 21.1891 43.9124 20.1473C44.1184 19.9905 44.3664 19.8983 44.6249 19.8826C44.8833 19.8668 45.1407 19.9281 45.3642 20.0587L52.1358 23.9819L49.1989 25.6887C42.5492 29.5602 35.8996 33.4244 29.25 37.2811C28.6467 37.5922 28.1472 38.0724 27.8126 38.6629C27.478 39.2534 27.3227 39.9286 27.3659 40.6059C27.3659 46.0808 27.3659 51.5556 27.3659 57.0304C27.3659 57.2188 27.3659 57.4183 27.3659 57.6067C27.3417 58.2119 27.4944 58.8109 27.8054 59.3306C28.1164 59.8502 28.5722 60.2679 29.117 60.5325C36.5055 64.8843 43.8939 69.2583 51.2824 73.6544C51.7479 73.9315 52.3907 74.142 52.6123 74.5521C52.834 74.9622 52.6788 75.5939 52.6788 76.1258L52.6234 82.8087Z" fill="#010052"/>
<path d="M55.0724 12.3895V20.9342L46.3503 15.7918C45.9002 15.4935 45.3721 15.3344 44.832 15.3344C44.292 15.3344 43.7639 15.4935 43.3137 15.7918L34.1372 21.1337C29.4824 23.8711 24.8166 26.5864 20.1508 29.3238L20.0178 29.3792C20.0178 27.3067 19.9624 25.2786 20.0178 23.2394C20.0576 22.4766 20.2937 21.737 20.7035 21.0923C21.1132 20.4477 21.6825 19.9198 22.3562 19.56C29.2423 15.4594 36.1321 11.3773 43.0255 7.31362C43.5407 6.97515 44.1436 6.7948 44.76 6.7948C45.3764 6.7948 45.9793 6.97515 46.4944 7.31362L55.0724 12.3895Z" fill="#010052"/>
<path d="M55.0753 0.630127V7.46813L49.5339 4.14333L49.2568 3.95492L51.3847 2.6915C52.4043 2.09304 53.4239 1.47241 54.4657 0.896117C54.6607 0.789663 54.8646 0.70065 55.0753 0.630127Z" fill="#010052"/>
<path d="M41.5299 62.9488L41.153 62.7715C38.7592 61.3751 36.3653 59.9897 33.9825 58.5822C33.4853 58.2435 33.0604 57.8094 32.7323 57.3051C32.4042 56.8009 32.1795 56.2365 32.0712 55.6447C31.963 55.0529 31.9733 54.4455 32.1017 53.8578C32.23 53.27 32.4738 52.7136 32.8188 52.2208C33.1846 51.7775 33.639 51.4007 34.049 50.9906C35.264 49.6415 35.9934 47.9252 36.1215 46.1142C36.1727 45.6877 36.2693 45.2679 36.4096 44.8619C36.4533 44.772 36.5188 44.6945 36.6001 44.6364C36.6814 44.5784 36.7759 44.5416 36.8751 44.5294C36.997 44.5294 37.1743 44.7843 37.2298 44.9506C37.4736 45.6155 37.6509 46.3026 37.8947 46.9565C38.0823 47.6449 38.0435 48.3754 37.7839 49.0401C37.505 50.2743 36.8414 51.388 35.8887 52.2208C33.9049 53.8499 34.5588 57.4186 37.4625 58.4049C38.1866 58.6608 38.8755 59.0071 39.5128 59.4356C39.8583 59.7195 40.1381 60.0749 40.3329 60.4774C40.7541 61.2864 41.1087 62.0843 41.5299 62.9488Z" fill="#010052"/>
<path d="M40.7872 34.7656C40.5428 36.1012 39.879 37.3241 38.8921 38.2567C37.7173 39.2541 36.5869 40.2848 35.3678 41.2046C33.8334 42.3869 32.7185 44.03 32.187 45.8926C32.1735 45.9366 32.1506 45.9772 32.12 46.0116C32.0895 46.0461 32.0518 46.0735 32.0097 46.0921C32.0097 45.8483 32.0097 45.6045 32.0097 45.3717C32.0097 44.3854 32.0097 43.399 32.0097 42.4126C31.9609 41.7751 32.097 41.137 32.4017 40.5748C32.7064 40.0126 33.1667 39.5502 33.7275 39.243C35.2791 38.2899 36.8233 37.3257 38.3601 36.3504C38.9918 35.9515 39.6235 35.5192 40.2552 35.1092C40.4104 34.9873 40.5988 34.8765 40.7872 34.7656Z" fill="#010052"/>
<path d="M57.3006 82.8083L61.6118 80.2593L86.4925 65.5194C87.7284 64.9477 88.7496 63.9965 89.4073 62.8041C89.778 61.9101 89.9446 60.9446 89.8949 59.978C89.8949 52.2423 89.8949 44.5104 89.8949 36.7821C89.8806 35.9776 89.6443 35.1928 89.2121 34.5142C88.7799 33.8355 88.1685 33.2895 87.4456 32.9364L71.1429 23.2501L65.9673 20.147C65.7613 19.9901 65.5133 19.898 65.2549 19.8822C64.9964 19.8664 64.7391 19.9277 64.5155 20.0583L57.7993 23.9816L60.7363 25.6883C67.3859 29.5598 74.0355 33.424 80.6852 37.2808C81.2877 37.5935 81.7871 38.0737 82.1233 38.6635C82.4595 39.2533 82.6182 39.9277 82.5803 40.6056C82.5803 46.0804 82.5803 51.5552 82.5803 57.0301C82.5803 57.2185 82.5803 57.4179 82.5803 57.6064C82.6045 58.2115 82.4518 58.8105 82.1408 59.3302C81.8298 59.8499 81.374 60.2676 80.8292 60.5322C73.4408 64.884 66.0523 69.2579 58.6638 73.654C58.1983 73.9311 57.5555 74.1417 57.3339 74.5517C57.1122 74.9618 57.3339 75.5935 57.3339 76.1255C57.2895 78.2866 57.3006 80.5031 57.3006 82.8083Z" fill="#010052"/>
<path d="M54.8398 12.39V20.9348L63.5619 15.7924C64.0143 15.4945 64.5441 15.3357 65.0858 15.3357C65.6275 15.3357 66.1573 15.4945 66.6097 15.7924L75.7751 21.1342L89.8169 29.3022L89.9388 29.3576C89.9388 27.2851 90.0053 25.257 89.9388 23.2178C89.898 22.4539 89.6601 21.7136 89.2484 21.0688C88.8367 20.424 88.2651 19.8968 87.5893 19.5383C80.7032 15.4378 73.8135 11.3556 66.92 7.29201C66.4049 6.95354 65.802 6.77319 65.1856 6.77319C64.5692 6.77319 63.9663 6.95354 63.4511 7.29201L54.8398 12.39Z" fill="#010052"/>
<path d="M54.8398 0.630127V7.46813L60.3812 4.14333L60.6583 3.95492L58.5415 2.6915C57.5108 2.09304 56.4912 1.47241 55.4494 0.896117C55.2544 0.789663 55.0505 0.70065 54.8398 0.630127Z" fill="#010052"/>
<path d="M68.3838 62.9486L68.7717 62.7713C71.1545 61.3749 73.5483 59.9896 75.9311 58.5821C76.9253 57.898 77.6073 56.8474 77.8276 55.661C78.0478 54.4745 77.7883 53.2491 77.1059 52.2539C76.7291 51.8106 76.2747 51.4337 75.8646 51.0237C74.6497 49.6746 73.9203 47.9583 73.7922 46.1473C73.7447 45.7212 73.6518 45.3014 73.5151 44.895C73.4688 44.8049 73.4012 44.7275 73.3181 44.6695C73.2351 44.6116 73.1391 44.5748 73.0385 44.5625C72.9166 44.5625 72.7504 44.8174 72.6839 44.9836C72.4511 45.6486 72.2627 46.3357 72.0189 46.9896C71.8313 47.678 71.8702 48.4085 72.1297 49.0731C72.4065 50.3113 73.0702 51.4293 74.0249 52.2649C76.0087 53.8941 75.3548 57.4627 72.4511 58.4491C71.7306 58.705 71.0454 59.0514 70.4119 59.4798C70.0601 59.7574 69.7791 60.1144 69.5918 60.5215C69.1707 61.2862 68.7606 62.0842 68.3838 62.9486Z" fill="#010052"/>
<path d="M69.125 34.7656C69.3687 36.1039 70.0371 37.3281 71.0312 38.2567C72.1395 39.2541 73.3254 40.2848 74.5445 41.2046C76.0953 42.3801 77.2262 44.024 77.7695 45.8926C77.7831 45.9366 77.8059 45.9772 77.8365 46.0116C77.8671 46.0461 77.9047 46.0735 77.9468 46.0921C77.9468 45.8483 77.9468 45.6045 77.9468 45.3717C77.9468 44.3854 77.9468 43.399 77.9468 42.4126C77.9956 41.7751 77.8595 41.137 77.5548 40.5748C77.2502 40.0126 76.7898 39.5502 76.229 39.243C74.6885 38.2899 73.1369 37.3257 71.6075 36.3504C70.9647 35.9515 70.3441 35.5192 69.7124 35.1092L69.125 34.7656Z" fill="#010052"/>
<path d="M2.81959 90.5557L3.61346 90.6105L3.31234 103.559C3.29409 104.544 3.48571 105.32 3.8872 105.886C4.30695 106.433 4.89094 106.707 5.63918 106.707C5.69393 106.707 5.72131 106.762 5.72131 106.871C5.72131 106.981 5.69393 107.035 5.63918 107.035C5.14644 107.035 4.76319 107.026 4.48945 107.008L2.98384 106.981L1.25924 107.008C0.967239 107.026 0.574868 107.035 0.082124 107.035C0.0273747 107.035 0 106.981 0 106.871C0 106.762 0.0273747 106.707 0.082124 106.707C0.830365 106.707 1.42348 106.424 1.86148 105.858C2.29947 105.292 2.5276 104.526 2.54585 103.559L2.81959 90.5557ZM22.1461 106.707C22.1826 106.707 22.2009 106.762 22.2009 106.871C22.2009 106.981 22.1826 107.035 22.1461 107.035C21.5256 107.035 21.0329 107.026 20.6679 107.008L18.6422 106.981L16.5891 107.008C16.2423 107.026 15.7678 107.035 15.1656 107.035C15.1108 107.035 15.0834 106.981 15.0834 106.871C15.0834 106.762 15.1108 106.707 15.1656 106.707C15.7496 106.707 16.1784 106.661 16.4522 106.57C16.7442 106.46 16.9358 106.278 17.0271 106.022C17.1183 105.767 17.1457 105.365 17.1092 104.818L16.4796 92.6636L17.8757 90.4736L10.8951 106.844C10.8586 106.917 10.7856 106.953 10.6761 106.953C10.5666 106.953 10.4936 106.917 10.4571 106.844L2.76484 92.1982C2.39985 91.523 2.0166 91.0302 1.61511 90.72C1.23186 90.4097 0.784741 90.2546 0.273747 90.2546C0.218997 90.2546 0.191623 90.1999 0.191623 90.0904C0.191623 89.9809 0.218997 89.9261 0.273747 89.9261L1.56036 89.9535C1.81585 89.9717 2.14435 89.9809 2.54585 89.9809L3.9967 89.9535C4.16095 89.9352 4.37082 89.9261 4.62632 89.9261C4.86357 89.9261 5.04607 90.0082 5.17381 90.1725C5.30156 90.3367 5.53881 90.7291 5.88556 91.3496L12.0175 102.847L10.6487 105.311L17.0544 90.6105C17.1639 90.355 17.2734 90.1816 17.3829 90.0904C17.5107 89.9809 17.6749 89.9261 17.8757 89.9261C18.0399 89.9261 18.2224 89.9352 18.4232 89.9535C18.6422 89.9717 18.8885 89.9809 19.1623 89.9809L20.7774 89.9535C21.0329 89.9352 21.3979 89.9261 21.8724 89.9261C21.9271 89.9261 21.9545 89.9809 21.9545 90.0904C21.9545 90.1999 21.9271 90.2546 21.8724 90.2546C21.0146 90.2546 20.3941 90.428 20.0109 90.7747C19.6276 91.1215 19.4543 91.6599 19.4908 92.3898L20.1478 104.818C20.1843 105.384 20.2481 105.794 20.3394 106.05C20.4489 106.305 20.6314 106.479 20.8869 106.57C21.1606 106.661 21.5804 106.707 22.1461 106.707Z" fill="#010052"/>
<path d="M23.937 107.035C23.8823 107.035 23.8549 106.981 23.8549 106.871C23.8549 106.762 23.8823 106.707 23.937 106.707C24.521 106.707 24.9408 106.661 25.1962 106.57C25.47 106.479 25.6525 106.305 25.7437 106.05C25.835 105.776 25.8806 105.365 25.8806 104.818V92.1435C25.8806 91.596 25.835 91.1945 25.7437 90.939C25.6525 90.6835 25.47 90.5101 25.1962 90.4189C24.9225 90.3094 24.5028 90.2546 23.937 90.2546C23.8823 90.2546 23.8549 90.1999 23.8549 90.0904C23.8549 89.9809 23.8823 89.9261 23.937 89.9261H35.5439C35.7264 89.9261 35.8176 90.0082 35.8176 90.1725L35.8724 93.8133C35.8724 93.8498 35.8176 93.8772 35.7081 93.8954C35.6169 93.9137 35.5621 93.8954 35.5439 93.8407C35.2519 92.7822 34.7591 91.9975 34.0656 91.4865C33.3722 90.9755 32.4597 90.72 31.3282 90.72H30.5069C29.9594 90.72 29.5579 90.8386 29.3025 91.0759C29.047 91.3131 28.9192 91.6781 28.9192 92.1708V104.708C28.9192 105.238 29.0196 105.63 29.2203 105.886C29.4211 106.141 29.7404 106.269 30.1784 106.269H31.0818C32.5053 106.269 33.6459 105.977 34.5036 105.393C35.3614 104.809 35.991 103.905 36.3925 102.683C36.3925 102.646 36.429 102.628 36.502 102.628C36.5567 102.628 36.6024 102.646 36.6389 102.683C36.6936 102.701 36.721 102.719 36.721 102.737C36.5385 104.161 36.4472 105.457 36.4472 106.625C36.4472 106.771 36.4199 106.88 36.3651 106.953C36.3104 107.008 36.2009 107.035 36.0366 107.035H23.937ZM34.5036 100.931C34.5036 100.183 34.2116 99.5985 33.6277 99.1788C33.0619 98.7408 32.2407 98.5218 31.1639 98.5218H27.4683V97.7553H31.1913C32.2498 97.7553 33.0619 97.5728 33.6277 97.2078C34.1934 96.8428 34.4763 96.3318 34.4763 95.6748C34.4763 95.6201 34.5219 95.5927 34.6131 95.5927C34.7226 95.5927 34.7774 95.6201 34.7774 95.6748L34.75 98.1385L34.7774 99.4525C34.8139 100.073 34.8321 100.566 34.8321 100.931C34.8321 100.967 34.7774 100.985 34.6679 100.985C34.5584 100.985 34.5036 100.967 34.5036 100.931Z" fill="#010052"/>
<path d="M46.843 107.145C46.259 107.145 45.5655 107.117 44.7625 107.063C44.4705 107.044 44.1055 107.026 43.6675 107.008C43.2478 106.99 42.7733 106.981 42.244 106.981L40.2183 107.008C39.8533 107.026 39.3606 107.035 38.7401 107.035C38.7036 107.035 38.6853 106.981 38.6853 106.871C38.6853 106.762 38.7036 106.707 38.7401 106.707C39.3241 106.707 39.7529 106.661 40.0267 106.57C40.3004 106.479 40.4829 106.305 40.5742 106.05C40.6837 105.776 40.7384 105.365 40.7384 104.818V92.1435C40.7384 91.596 40.6837 91.1945 40.5742 90.939C40.4829 90.6835 40.3004 90.5101 40.0267 90.4189C39.7712 90.3094 39.3606 90.2546 38.7948 90.2546C38.7401 90.2546 38.7127 90.1999 38.7127 90.0904C38.7127 89.9809 38.7401 89.9261 38.7948 89.9261L40.2457 89.9535C41.0852 89.99 41.7513 90.0082 42.244 90.0082C42.9923 90.0082 43.7588 89.9809 44.5435 89.9261C45.4925 89.8896 46.1312 89.8714 46.4597 89.8714C48.303 89.8714 49.9363 90.2364 51.3598 90.9664C52.8015 91.6964 53.9148 92.691 54.6995 93.9502C55.4843 95.2094 55.8766 96.6238 55.8766 98.1933C55.8766 99.9635 55.466 101.533 54.6448 102.902C53.8418 104.252 52.7468 105.302 51.3598 106.05C49.9911 106.78 48.4855 107.145 46.843 107.145ZM46.5692 106.515C47.7372 106.515 48.7683 106.223 49.6626 105.639C50.5568 105.037 51.2503 104.152 51.7431 102.984C52.2541 101.816 52.5095 100.42 52.5095 98.7955C52.5095 97.2443 52.2723 95.8391 51.7978 94.5798C51.3233 93.3023 50.6481 92.2986 49.7721 91.5686C48.8961 90.8386 47.8832 90.4736 46.7335 90.4736C45.602 90.4736 44.8264 90.5831 44.4066 90.8021C43.9869 91.0211 43.777 91.4865 43.777 92.1982V104.517C43.777 105.247 43.9687 105.767 44.3519 106.077C44.7351 106.369 45.4743 106.515 46.5692 106.515Z" fill="#010052"/>
<path d="M72.8511 93.4301C72.8511 92.4446 72.6229 91.669 72.1667 91.1032C71.7287 90.5375 71.1082 90.2546 70.3052 90.2546C70.2687 90.2546 70.2505 90.1999 70.2505 90.0904C70.2505 89.9809 70.2687 89.9261 70.3052 89.9261L71.6192 89.9535C72.3127 89.99 72.8693 90.0082 73.2891 90.0082C73.6358 90.0082 74.1377 89.99 74.7947 89.9535L76.0539 89.9261C76.0904 89.9261 76.1087 89.9809 76.1087 90.0904C76.1087 90.1999 76.0904 90.2546 76.0539 90.2546C75.3422 90.2546 74.7856 90.5375 74.3841 91.1032C73.9826 91.669 73.7818 92.4446 73.7818 93.4301V101.04C73.7818 102.318 73.4989 103.44 72.9332 104.407C72.3674 105.375 71.5645 106.123 70.5242 106.652C69.5022 107.163 68.316 107.419 66.9655 107.419C65.615 107.419 64.4197 107.163 63.3794 106.652C62.3392 106.141 61.518 105.402 60.9157 104.435C60.3317 103.449 60.0397 102.299 60.0397 100.985V92.1435C60.0397 91.596 59.985 91.1945 59.8755 90.939C59.7842 90.6835 59.6017 90.5101 59.328 90.4189C59.0725 90.3094 58.6619 90.2546 58.0961 90.2546C58.0414 90.2546 58.014 90.1999 58.014 90.0904C58.014 89.9809 58.0414 89.9261 58.0961 89.9261L59.547 89.9535C60.3865 89.99 61.0526 90.0082 61.5453 90.0082C62.0928 90.0082 62.7863 89.99 63.6258 89.9535L65.0219 89.9261C65.0767 89.9261 65.104 89.9809 65.104 90.0904C65.104 90.1999 65.0767 90.2546 65.0219 90.2546C64.4562 90.2546 64.0364 90.3094 63.7627 90.4189C63.5072 90.5284 63.3247 90.72 63.2152 90.9937C63.1239 91.2492 63.0783 91.6507 63.0783 92.1982V100.027C63.0783 102.199 63.5072 103.805 64.3649 104.845C65.2227 105.886 66.4363 106.406 68.0058 106.406C69.5205 106.406 70.7067 105.949 71.5645 105.037C72.4222 104.106 72.8511 102.783 72.8511 101.068V93.4301Z" fill="#010052"/>
<path d="M80.9103 92.691C80.9103 93.348 81.0746 93.9319 81.4031 94.4429C81.7498 94.9539 82.1696 95.4011 82.6623 95.7843C83.1551 96.1675 83.8212 96.6329 84.6607 97.1804C85.5732 97.7644 86.3032 98.2754 86.8506 98.7134C87.3981 99.1514 87.8635 99.6898 88.2468 100.328C88.63 100.949 88.8216 101.67 88.8216 102.491C88.8216 103.44 88.5661 104.289 88.0551 105.037C87.5441 105.767 86.8324 106.342 85.9199 106.762C85.0257 107.163 84.0219 107.364 82.9087 107.364C82.1057 107.364 81.248 107.254 80.3355 107.035C79.4412 106.798 78.839 106.543 78.5287 106.269C78.4375 106.196 78.3645 106.132 78.3098 106.077C78.2733 106.004 78.255 105.895 78.255 105.749L78.1729 101.396V101.369C78.1729 101.296 78.2185 101.259 78.3098 101.259C78.401 101.241 78.4557 101.268 78.474 101.341C79.0215 102.455 79.496 103.358 79.8975 104.051C80.3172 104.745 80.8373 105.356 81.4578 105.886C82.0966 106.415 82.8175 106.679 83.6204 106.679C84.3504 106.679 84.9527 106.488 85.4272 106.105C85.9017 105.703 86.1389 105.028 86.1389 104.079C86.1389 103.276 85.9564 102.573 85.5914 101.971C85.2447 101.369 84.8158 100.858 84.3048 100.438C83.7938 100.018 83.0912 99.5164 82.197 98.9324C81.321 98.3666 80.6366 97.883 80.1439 97.4815C79.6694 97.08 79.2587 96.5964 78.912 96.0307C78.5652 95.4649 78.3919 94.7988 78.3919 94.0323C78.3919 93.0651 78.6656 92.253 79.2131 91.596C79.7789 90.9207 80.4997 90.428 81.3757 90.1177C82.2517 89.7892 83.1733 89.625 84.1406 89.625C84.7793 89.625 85.4272 89.6889 86.0842 89.8166C86.7411 89.9261 87.2704 90.063 87.6719 90.2272C87.8361 90.3002 87.9456 90.3824 88.0004 90.4736C88.0551 90.5466 88.0825 90.647 88.0825 90.7747V94.7988C88.0825 94.8536 88.0369 94.8992 87.9456 94.9357C87.8544 94.9539 87.7996 94.9357 87.7814 94.8809L87.5624 94.3608C87.1061 93.2111 86.5678 92.2347 85.9473 91.4317C85.345 90.6287 84.4964 90.2272 83.4014 90.2272C82.6714 90.2272 82.0692 90.4371 81.5947 90.8569C81.1385 91.2766 80.9103 91.888 80.9103 92.691Z" fill="#010052"/>
<path d="M95.3272 100H103.211L103.403 100.766H94.9166L95.3272 100ZM109.863 106.707C109.954 106.707 110 106.762 110 106.871C110 106.981 109.954 107.035 109.863 107.035C109.498 107.035 108.932 107.017 108.166 106.981C107.363 106.944 106.788 106.926 106.441 106.926C105.985 106.926 105.428 106.944 104.771 106.981C104.151 107.017 103.658 107.035 103.293 107.035C103.22 107.035 103.184 106.981 103.184 106.871C103.184 106.762 103.22 106.707 103.293 106.707C103.768 106.707 104.105 106.661 104.306 106.57C104.525 106.46 104.635 106.278 104.635 106.022C104.635 105.712 104.452 105.192 104.087 104.462L98.53 93.4848L99.8714 91.1306L94.4238 103.148C94.1866 103.677 94.0679 104.17 94.0679 104.626C94.0679 105.283 94.2961 105.794 94.7523 106.159C95.2268 106.524 95.8564 106.707 96.6412 106.707C96.7324 106.707 96.778 106.762 96.778 106.871C96.778 106.981 96.7324 107.035 96.6412 107.035C96.3127 107.035 95.8382 107.017 95.2177 106.981C94.5242 106.944 93.9219 106.926 93.4109 106.926C92.9182 106.926 92.3251 106.944 91.6316 106.981C91.0111 107.017 90.5092 107.035 90.126 107.035C90.053 107.035 90.0165 106.981 90.0165 106.871C90.0165 106.762 90.053 106.707 90.126 106.707C90.637 106.707 91.0658 106.606 91.4126 106.406C91.7593 106.187 92.1061 105.813 92.4528 105.283C92.7996 104.736 93.2102 103.933 93.6847 102.874L99.625 89.8166C99.6615 89.7619 99.7436 89.7345 99.8714 89.7345C100.017 89.7345 100.099 89.7619 100.118 89.8166L106.961 103.285C107.6 104.581 108.129 105.475 108.549 105.968C108.969 106.46 109.407 106.707 109.863 106.707Z" fill="#010052"/>
<path d="M12.8078 117.397H11.2206C11.1268 116.94 10.9625 116.539 10.7279 116.193C10.4975 115.848 10.2159 115.558 9.88309 115.323C9.55457 115.084 9.18979 114.905 8.78873 114.786C8.38768 114.666 7.96957 114.606 7.53439 114.606C6.74082 114.606 6.02191 114.807 5.37767 115.208C4.7377 115.609 4.22786 116.2 3.84814 116.981C3.47269 117.761 3.28496 118.719 3.28496 119.854C3.28496 120.989 3.47269 121.947 3.84814 122.728C4.22786 123.508 4.7377 124.099 5.37767 124.5C6.02191 124.901 6.74082 125.102 7.53439 125.102C7.96957 125.102 8.38768 125.042 8.78873 124.923C9.18979 124.803 9.55457 124.626 9.88309 124.392C10.2159 124.153 10.4975 123.86 10.7279 123.515C10.9625 123.165 11.1268 122.764 11.2206 122.312H12.8078C12.6883 122.981 12.4707 123.581 12.155 124.11C11.8393 124.639 11.4468 125.089 10.9774 125.46C10.5081 125.827 9.98122 126.107 9.39671 126.299C8.81647 126.491 8.19569 126.587 7.53439 126.587C6.41657 126.587 5.42247 126.314 4.55211 125.767C3.68174 125.221 2.99697 124.445 2.49779 123.438C1.99861 122.431 1.74902 121.236 1.74902 119.854C1.74902 118.472 1.99861 117.277 2.49779 116.27C2.99697 115.263 3.68174 114.487 4.55211 113.941C5.42247 113.395 6.41657 113.122 7.53439 113.122C8.19569 113.122 8.81647 113.218 9.39671 113.41C9.98122 113.602 10.5081 113.883 10.9774 114.254C11.4468 114.621 11.8393 115.069 12.155 115.598C12.4707 116.123 12.6883 116.723 12.8078 117.397Z" fill="#010052"/>
<path d="M21.677 126.407H20.013L24.8256 113.301H26.464L31.2766 126.407H29.6126L25.696 115.374H25.5936L21.677 126.407ZM22.2913 121.288H28.9983V122.696H22.2913V121.288Z" fill="#010052"/>
<path d="M39.085 126.407V113.301H43.5136C44.5419 113.301 45.3824 113.486 46.0351 113.858C46.6922 114.224 47.1786 114.722 47.4943 115.349C47.81 115.976 47.9679 116.676 47.9679 117.448C47.9679 118.22 47.81 118.922 47.4943 119.553C47.1828 120.185 46.7007 120.688 46.0479 121.064C45.3952 121.435 44.5589 121.62 43.5392 121.62H40.365V120.212H43.488C44.192 120.212 44.7573 120.091 45.184 119.848C45.6106 119.605 45.9199 119.276 46.1119 118.862C46.3082 118.444 46.4063 117.973 46.4063 117.448C46.4063 116.923 46.3082 116.454 46.1119 116.04C45.9199 115.626 45.6085 115.302 45.1776 115.067C44.7467 114.828 44.175 114.709 43.4624 114.709H40.6722V126.407H39.085Z" fill="#010052"/>
<path d="M57.8786 113.301V126.407H56.2915V113.301H57.8786Z" fill="#010052"/>
<path d="M66.1111 114.709V113.301H75.9411V114.709H71.8196V126.407H70.2325V114.709H66.1111Z" fill="#010052"/>
<path d="M83.1639 126.407H81.5L86.3126 113.301H87.9509L92.7635 126.407H91.0996L87.183 115.374H87.0806L83.1639 126.407ZM83.7783 121.288H90.4852V122.696H83.7783V121.288Z" fill="#010052"/>
<path d="M100.572 126.407V113.301H102.159V124.999H108.252V126.407H100.572Z" fill="#010052"/>
</svg>
