<svg width="223" height="74" viewBox="0 0 223 74" fill="none" xmlns="http://www.w3.org/2000/svg">
<path d="M29.348 73.8227L25.4742 71.5276L3.08622 58.2761C2.10144 57.8959 1.2686 57.203 0.715406 56.3039C0.162214 55.4048 -0.0807825 54.3491 0.0236847 53.2986C0.0236847 46.3501 0.0358675 39.4015 0.0602313 32.4529C0.0694179 31.731 0.27941 31.0259 0.666689 30.4166C1.05397 29.8073 1.60324 29.3178 2.25298 29.003C7.12575 26.0794 11.9985 23.1776 16.8713 20.2978C18.4306 19.3769 19.9801 18.4486 21.5199 17.5131C21.707 17.3749 21.9301 17.2939 22.1622 17.2796C22.3943 17.2653 22.6256 17.3185 22.8282 17.4327L28.8656 20.963L26.227 22.4906L8.32688 32.8915C7.79315 33.1649 7.34903 33.5857 7.04718 34.1039C6.74534 34.6221 6.59842 35.216 6.62385 35.8151C6.62385 40.7342 6.62385 45.6459 6.62385 50.565C6.62385 50.7404 6.62385 50.9158 6.62385 51.0913C6.60021 51.6344 6.73652 52.1726 7.01586 52.639C7.29521 53.1055 7.70531 53.4797 8.19532 53.7152C14.8466 57.6135 21.4858 61.5433 28.1128 65.5049C28.5294 65.7534 29.0849 65.9434 29.2968 66.3162C29.5088 66.689 29.3553 67.2445 29.3553 67.7269L29.348 73.8227Z" fill="#B9B8EB"/>
<path d="M31.555 10.5401V18.2147L23.7195 13.5953C23.3134 13.329 22.8384 13.1871 22.3527 13.1871C21.8671 13.1871 21.392 13.329 20.9859 13.5953L12.7485 18.3974L0.176763 25.7577C0.14212 25.7767 0.105307 25.7914 0.0671258 25.8015C0.0671258 23.945 0.00865257 22.147 0.0671258 20.2905C0.10225 19.6047 0.314673 18.9398 0.683636 18.3608C1.0526 17.7817 1.56548 17.3083 2.17216 16.9867C8.37032 13.2883 14.5636 9.6118 20.752 5.95723C21.2162 5.65466 21.7584 5.49357 22.3125 5.49357C22.8667 5.49357 23.4088 5.65466 23.873 5.95723L31.555 10.5401Z" fill="#B9B8EB"/>
<path d="M31.5547 0V6.13968L26.5844 3.21602L26.3359 3.04791L28.2436 1.915C29.1646 1.37412 30.0782 0.811316 31.0138 0.292367C31.1874 0.182933 31.368 0.0852573 31.5547 0Z" fill="#B9B8EB"/>
<path d="M19.393 55.9586C19.2395 55.8928 19.1372 55.8563 19.0422 55.8051C16.9006 54.5479 14.7517 53.3054 12.6101 52.0409C10.7828 50.9591 10.2273 47.9478 11.5576 46.3544C11.8865 45.9524 12.2885 45.6235 12.6686 45.2507C13.7645 44.0402 14.4188 42.4946 14.5251 40.8652C14.573 40.4801 14.6587 40.1006 14.7809 39.7323C14.8222 39.6526 14.8825 39.5842 14.9564 39.5332C15.0303 39.4823 15.1157 39.4502 15.2049 39.4399C15.3218 39.4399 15.468 39.6665 15.5265 39.82C15.7384 40.4194 15.8992 41.026 16.1185 41.6181C16.2887 42.2358 16.2554 42.8919 16.0235 43.4892C15.773 44.6003 15.1768 45.6034 14.3205 46.3544C12.537 47.8162 13.1291 51.0322 15.7311 51.9166C16.3807 52.1464 16.9994 52.4558 17.573 52.8376C17.8831 53.0913 18.1328 53.4109 18.3039 53.7732C18.684 54.4675 19.0129 55.1838 19.393 55.9586Z" fill="#B9B8EB"/>
<path d="M18.7202 30.6399C18.5067 31.8455 17.9063 32.9488 17.0099 33.7828C15.9647 34.6746 14.9487 35.6101 13.845 36.4287C12.457 37.4871 11.445 38.9627 10.9579 40.6388C10.9468 40.6786 10.9264 40.7153 10.8985 40.7457C10.8705 40.7762 10.8358 40.7997 10.7971 40.8142C10.7971 40.6023 10.7971 40.3903 10.7971 40.171C10.7971 39.2866 10.8336 38.4022 10.7971 37.5178C10.7504 36.9452 10.8704 36.3713 11.1428 35.8654C11.4152 35.3596 11.8282 34.9434 12.332 34.6672C13.7281 33.8048 15.1095 32.9423 16.4909 32.0725C17.0683 31.7144 17.6312 31.3416 18.194 30.9542L18.7202 30.6399Z" fill="#B9B8EB"/>
<path d="M28.208 47.3558H31.5556V23.4403L31.4971 23.3307C29.3043 27.4457 26.6 28.3228 23.1573 28.9295C20.051 29.4777 18.6403 30.9103 18.3479 34.1848C20.9646 32.7229 26.5561 32.8691 28.4492 34.5868C29.4578 35.5077 30.6419 40.0979 29.1801 42.6707C29.1051 42.5189 29.0463 42.3597 29.0047 42.1956C28.7123 38.6068 27.8791 38.161 24.6192 39.3597C23.4571 39.6858 22.2217 39.6372 21.0889 39.2208C19.839 38.7968 18.7499 37.8613 17.4343 37.0792C16.0528 42.064 18.9838 45.5139 21.1766 49.1758L20.7673 49.4243L17.3466 46.0475C18.0775 51.1201 21.944 56.2365 25.3866 59.2405C27.0523 60.8239 29.2505 61.7261 31.5483 61.7695V57.5594C31.1243 57.5594 30.6858 57.5594 30.2399 57.5594C28.6465 57.4863 28.515 56.0026 27.382 55.3667H31.5483V53.6929H25.1381C27.092 52.5638 29.293 51.9313 31.5483 51.851V50.3891C30.4144 49.8574 29.318 49.2493 28.2664 48.5692C27.806 48.2476 27.6598 47.4728 27.3747 46.9027L27.7475 46.6761C27.9595 46.9685 28.1714 47.2901 28.208 47.3558Z" fill="#B9B8EB"/>
<path d="M27.1851 38.0582C24.5392 38.3579 21.9371 39.8855 20.2853 36.6768C22.7996 35.9605 25.0582 35.8947 27.1851 38.0582Z" fill="#B9B8EB"/>
<path d="M33.5518 73.822L37.4257 71.5269L59.8136 58.2901C60.7984 57.9098 61.6312 57.217 62.1844 56.3179C62.7376 55.4188 62.9806 54.363 62.8761 53.3126C62.8761 46.364 62.8761 39.4154 62.8761 32.4669C62.867 31.745 62.657 31.0399 62.2697 30.4305C61.8824 29.8212 61.3331 29.3318 60.6834 29.017C55.8106 26.0933 50.9379 23.1916 46.0651 20.3118C44.5107 19.3908 42.9611 18.4626 41.4165 17.527C41.2294 17.3889 41.0063 17.3078 40.7742 17.2935C40.542 17.2793 40.3107 17.3324 40.1081 17.4466L34.0708 20.9769L36.7094 22.5045L54.6095 32.8908C55.1438 33.1636 55.5884 33.5842 55.8904 34.1025C56.1923 34.6209 56.3389 35.2152 56.3125 35.8145C56.3125 40.7335 56.3125 45.6453 56.3125 50.5643C56.3125 50.7397 56.3125 50.9152 56.3125 51.0906C56.3362 51.6338 56.1999 52.1719 55.9205 52.6384C55.6412 53.1048 55.2311 53.479 54.7411 53.7146C48.0897 57.6128 41.4506 61.5427 34.8236 65.5042C34.407 65.7527 33.8515 65.9428 33.6395 66.3155C33.4276 66.6883 33.5811 67.2438 33.5811 67.7262L33.5518 73.822Z" fill="#B9B8EB"/>
<path d="M31.3439 10.5401V18.2147L39.1793 13.5953C39.5854 13.329 40.0605 13.1871 40.5461 13.1871C41.0317 13.1871 41.5068 13.329 41.9129 13.5953L50.1503 18.3974L62.7221 25.7577C62.7567 25.7767 62.7935 25.7914 62.8317 25.8015C62.8317 23.945 62.8902 22.147 62.8317 20.2905C62.7966 19.6047 62.5842 18.9398 62.2152 18.3608C61.8462 17.7817 61.3334 17.3083 60.7267 16.9867C54.5431 13.2883 48.3474 9.6118 42.1395 5.95723C41.6753 5.65466 41.1331 5.49357 40.579 5.49357C40.0249 5.49357 39.4827 5.65466 39.0185 5.95723L31.3439 10.5401Z" fill="#B9B8EB"/>
<path d="M31.3439 0V6.13968L36.3141 3.21602L36.5626 3.04791L34.6403 1.86383C33.7193 1.32296 32.8057 0.760152 31.8701 0.241203C31.7 0.14981 31.5242 0.0692477 31.3439 0Z" fill="#B9B8EB"/>
<path d="M43.5057 55.9587C43.6253 55.9137 43.7424 55.8624 43.8566 55.8053C45.9982 54.5481 48.1544 53.3055 50.2886 52.041C52.1159 50.9593 52.6714 47.9479 51.3412 46.3545C51.0122 45.9525 50.6102 45.6236 50.2375 45.2509C49.1369 44.0427 48.4797 42.4963 48.3736 40.8654C48.3257 40.4803 48.24 40.1008 48.1178 39.7325C48.0765 39.6527 48.0162 39.5844 47.9423 39.5334C47.8684 39.4824 47.7831 39.4504 47.6939 39.4401C47.5769 39.4401 47.4308 39.6667 47.3723 39.8202C47.1603 40.4195 46.9995 41.0262 46.7802 41.6182C46.6101 42.2359 46.6434 42.892 46.8753 43.4894C47.1258 44.6004 47.722 45.6035 48.5783 46.3545C50.3617 47.8164 49.7697 51.0324 47.1676 51.9168C46.518 52.1466 45.8993 52.4559 45.3257 52.8377C45.0156 53.0914 44.7659 53.411 44.5948 53.7733C44.2147 54.4677 43.8931 55.184 43.5057 55.9587Z" fill="#B9B8EB"/>
<path d="M44.1777 30.6399C44.3913 31.8455 44.9917 32.9488 45.8881 33.7828C46.9333 34.6745 47.9493 35.6101 49.0529 36.4287C50.4545 37.4815 51.4797 38.9578 51.9766 40.6388C51.9877 40.6786 52.0081 40.7153 52.036 40.7457C52.064 40.7762 52.0987 40.7997 52.1374 40.8142C52.1374 40.6023 52.1374 40.3903 52.1374 40.171C52.1374 39.2866 52.1374 38.4022 52.1374 37.5178C52.1816 36.9447 52.0596 36.371 51.7861 35.8654C51.5126 35.3598 51.0991 34.9438 50.5952 34.6672C49.1991 33.8047 47.8177 32.9423 46.4363 32.0725C45.8588 31.7143 45.3033 31.3416 44.7332 30.9542L44.1777 30.6399Z" fill="#B9B8EB"/>
<path d="M35.1437 46.647L35.5165 46.8736C35.2314 47.4437 35.0852 48.2185 34.6247 48.5401C33.5732 49.2202 32.4768 49.8283 31.3429 50.36V51.8219C33.5981 51.9022 35.7992 52.5346 37.7531 53.6638H31.3429V55.3376H35.5091C34.3762 55.9954 34.2447 57.4791 32.6513 57.5303C32.2054 57.5303 31.7669 57.5668 31.3429 57.5303V61.7404C33.6417 61.695 35.84 60.7901 37.5045 59.2041C40.9545 56.2 44.8137 51.0836 45.5446 46.0111L42.0874 49.4025L41.6781 49.154C43.8708 45.4994 46.7945 42.0422 45.4204 37.0574C44.1413 37.8395 43.0522 38.775 41.7658 39.199C40.6329 39.6154 39.3975 39.664 38.2355 39.3378C34.9756 38.1391 34.1423 38.6069 33.85 42.1738C33.8083 42.3379 33.7495 42.4971 33.6745 42.6489C32.2127 40.0761 33.3968 35.4859 34.4055 34.565C36.2985 32.8473 41.89 32.6719 44.5067 34.163C44.2143 30.8885 42.8037 29.4559 39.6973 28.9077C36.2547 28.301 33.5722 27.4459 31.3575 23.3089L31.2991 23.4185V47.334H34.6467C34.7271 47.2902 34.939 46.9686 35.1437 46.647Z" fill="#B9B8EB"/>
<path d="M35.7148 38.0581C38.3608 38.3578 40.9628 39.8854 42.6147 36.6767C40.1003 35.9604 37.8418 35.8946 35.7148 38.0581Z" fill="#B9B8EB"/>
<path d="M77.0369 13.9828L78.1164 14.0573L77.7069 31.663C77.6821 33.003 77.9427 34.0576 78.4886 34.8269C79.0593 35.5713 79.8534 35.9435 80.8708 35.9435C80.9452 35.9435 80.9824 36.018 80.9824 36.1668C80.9824 36.3157 80.9452 36.3902 80.8708 36.3902C80.2008 36.3902 79.6797 36.3778 79.3075 36.353L77.2603 36.3157L74.9153 36.353C74.5183 36.3778 73.9848 36.3902 73.3148 36.3902C73.2403 36.3902 73.2031 36.3157 73.2031 36.1668C73.2031 36.018 73.2403 35.9435 73.3148 35.9435C74.3322 35.9435 75.1386 35.5589 75.7342 34.7896C76.3297 34.0204 76.6399 32.9782 76.6647 31.663L77.0369 13.9828ZM103.315 35.9435C103.365 35.9435 103.39 36.018 103.39 36.1668C103.39 36.3157 103.365 36.3902 103.315 36.3902C102.472 36.3902 101.802 36.3778 101.305 36.353L98.551 36.3157L95.7594 36.353C95.2879 36.3778 94.6427 36.3902 93.8239 36.3902C93.7494 36.3902 93.7122 36.3157 93.7122 36.1668C93.7122 36.018 93.7494 35.9435 93.8239 35.9435C94.6179 35.9435 95.2011 35.8815 95.5733 35.7574C95.9703 35.6085 96.2309 35.3604 96.3549 35.013C96.479 34.6656 96.5162 34.1197 96.4666 33.3752L95.6105 16.8489L97.5088 13.8712L88.0173 36.1296C87.9677 36.2289 87.8684 36.2785 87.7195 36.2785C87.5706 36.2785 87.4714 36.2289 87.4218 36.1296L76.9625 16.2161C76.4662 15.298 75.9451 14.628 75.3992 14.2061C74.8781 13.7843 74.2701 13.5734 73.5753 13.5734C73.5009 13.5734 73.4637 13.4989 73.4637 13.3501C73.4637 13.2012 73.5009 13.1267 73.5753 13.1267L75.3248 13.1639C75.6722 13.1888 76.1188 13.2012 76.6647 13.2012L78.6375 13.1639C78.8608 13.1391 79.1462 13.1267 79.4936 13.1267C79.8162 13.1267 80.0643 13.2384 80.238 13.4617C80.4117 13.685 80.7343 14.2186 81.2058 15.0622L89.5434 30.6953L87.6823 34.0452L96.3922 14.0573C96.541 13.7099 96.6899 13.4741 96.8388 13.3501C97.0125 13.2012 97.2358 13.1267 97.5088 13.1267C97.7321 13.1267 97.9803 13.1391 98.2532 13.1639C98.551 13.1888 98.886 13.2012 99.2582 13.2012L101.454 13.1639C101.802 13.1391 102.298 13.1267 102.943 13.1267C103.018 13.1267 103.055 13.2012 103.055 13.3501C103.055 13.4989 103.018 13.5734 102.943 13.5734C101.777 13.5734 100.933 13.8091 100.412 14.2806C99.891 14.7521 99.6552 15.4841 99.7049 16.4767L100.598 33.3752C100.648 34.1445 100.735 34.7028 100.859 35.0502C101.008 35.3976 101.256 35.6333 101.603 35.7574C101.975 35.8815 102.546 35.9435 103.315 35.9435Z" fill="#B9B8EB"/>
<path d="M105.75 36.3902C105.676 36.3902 105.639 36.3157 105.639 36.1668C105.639 36.018 105.676 35.9435 105.75 35.9435C106.545 35.9435 107.115 35.8815 107.463 35.7574C107.835 35.6333 108.083 35.3976 108.207 35.0502C108.331 34.678 108.393 34.1197 108.393 33.3752V16.1417C108.393 15.3972 108.331 14.8513 108.207 14.5039C108.083 14.1565 107.835 13.9208 107.463 13.7967C107.09 13.6478 106.52 13.5734 105.75 13.5734C105.676 13.5734 105.639 13.4989 105.639 13.3501C105.639 13.2012 105.676 13.1267 105.75 13.1267H121.532C121.781 13.1267 121.905 13.2384 121.905 13.4617L121.979 18.4122C121.979 18.4618 121.905 18.499 121.756 18.5238C121.632 18.5487 121.557 18.5238 121.532 18.4494C121.135 17.0102 120.465 15.9432 119.522 15.2483C118.579 14.5535 117.339 14.2061 115.8 14.2061H114.684C113.939 14.2061 113.393 14.3674 113.046 14.69C112.698 15.0126 112.525 15.5089 112.525 16.1789V33.2263C112.525 33.946 112.661 34.4795 112.934 34.8269C113.207 35.1743 113.641 35.348 114.237 35.348H115.465C117.401 35.348 118.952 34.9509 120.118 34.1569C121.284 33.3628 122.14 32.1345 122.686 30.472C122.686 30.4223 122.736 30.3975 122.835 30.3975C122.91 30.3975 122.972 30.4223 123.021 30.472C123.096 30.4968 123.133 30.5216 123.133 30.5464C122.885 32.4819 122.761 34.2437 122.761 35.8319C122.761 36.0304 122.723 36.1793 122.649 36.2785C122.575 36.353 122.426 36.3902 122.202 36.3902H105.75ZM120.118 28.0898C120.118 27.0724 119.721 26.2783 118.927 25.7076C118.158 25.1121 117.041 24.8143 115.577 24.8143H110.552V23.7721H115.614C117.053 23.7721 118.158 23.5239 118.927 23.0276C119.696 22.5314 120.081 21.8366 120.081 20.9432C120.081 20.8688 120.143 20.8316 120.267 20.8316C120.416 20.8316 120.49 20.8688 120.49 20.9432L120.453 24.2932L120.49 26.0798C120.54 26.9235 120.565 27.5935 120.565 28.0898C120.565 28.1394 120.49 28.1642 120.341 28.1642C120.192 28.1642 120.118 28.1394 120.118 28.0898Z" fill="#B9B8EB"/>
<path d="M136.896 36.5391C136.102 36.5391 135.159 36.5018 134.067 36.4274C133.67 36.4026 133.174 36.3778 132.578 36.353C132.007 36.3281 131.362 36.3157 130.643 36.3157L127.888 36.353C127.392 36.3778 126.722 36.3902 125.878 36.3902C125.829 36.3902 125.804 36.3157 125.804 36.1668C125.804 36.018 125.829 35.9435 125.878 35.9435C126.672 35.9435 127.256 35.8815 127.628 35.7574C128 35.6333 128.248 35.3976 128.372 35.0502C128.521 34.678 128.595 34.1197 128.595 33.3752V16.1417C128.595 15.3972 128.521 14.8513 128.372 14.5039C128.248 14.1565 128 13.9208 127.628 13.7967C127.28 13.6478 126.722 13.5734 125.953 13.5734C125.878 13.5734 125.841 13.4989 125.841 13.3501C125.841 13.2012 125.878 13.1267 125.953 13.1267L127.925 13.1639C129.067 13.2136 129.973 13.2384 130.643 13.2384C131.66 13.2384 132.702 13.2012 133.769 13.1267C135.06 13.0771 135.928 13.0523 136.375 13.0523C138.881 13.0523 141.102 13.5486 143.037 14.5411C144.998 15.5337 146.511 16.8861 147.578 18.5983C148.646 20.3105 149.179 22.2336 149.179 24.3676C149.179 26.7746 148.621 28.9086 147.504 30.7697C146.412 32.606 144.923 34.0328 143.037 35.0502C141.176 36.0428 139.129 36.5391 136.896 36.5391ZM136.524 35.683C138.112 35.683 139.514 35.2859 140.73 34.4919C141.946 33.673 142.889 32.4695 143.559 30.8814C144.253 29.2933 144.601 27.395 144.601 25.1865C144.601 23.0773 144.278 21.1666 143.633 19.4544C142.988 17.7174 142.07 16.3526 140.879 15.36C139.688 14.3674 138.31 13.8712 136.747 13.8712C135.209 13.8712 134.154 14.02 133.583 14.3178C133.012 14.6156 132.727 15.2483 132.727 16.2161V32.9658C132.727 33.9584 132.988 34.6656 133.509 35.0874C134.03 35.4845 135.035 35.683 136.524 35.683Z" fill="#B9B8EB"/>
<path d="M172.259 17.8911C172.259 16.5511 171.949 15.4965 171.329 14.7272C170.733 13.958 169.89 13.5734 168.798 13.5734C168.748 13.5734 168.723 13.4989 168.723 13.3501C168.723 13.2012 168.748 13.1267 168.798 13.1267L170.584 13.1639C171.527 13.2136 172.284 13.2384 172.855 13.2384C173.326 13.2384 174.009 13.2136 174.902 13.1639L176.614 13.1267C176.664 13.1267 176.689 13.2012 176.689 13.3501C176.689 13.4989 176.664 13.5734 176.614 13.5734C175.646 13.5734 174.89 13.958 174.344 14.7272C173.798 15.4965 173.525 16.5511 173.525 17.8911V28.2387C173.525 29.9757 173.14 31.5017 172.371 32.8169C171.602 34.1321 170.51 35.1495 169.095 35.8691C167.706 36.5639 166.093 36.9113 164.257 36.9113C162.42 36.9113 160.795 36.5639 159.381 35.8691C157.966 35.1743 156.85 34.1693 156.031 32.8541C155.237 31.5142 154.84 29.9509 154.84 28.1642V16.1417C154.84 15.3972 154.765 14.8513 154.616 14.5039C154.492 14.1565 154.244 13.9208 153.872 13.7967C153.524 13.6478 152.966 13.5734 152.197 13.5734C152.122 13.5734 152.085 13.4989 152.085 13.3501C152.085 13.2012 152.122 13.1267 152.197 13.1267L154.17 13.1639C155.311 13.2136 156.217 13.2384 156.887 13.2384C157.631 13.2384 158.574 13.2136 159.716 13.1639L161.614 13.1267C161.688 13.1267 161.726 13.2012 161.726 13.3501C161.726 13.4989 161.688 13.5734 161.614 13.5734C160.845 13.5734 160.274 13.6478 159.902 13.7967C159.554 13.9456 159.306 14.2061 159.157 14.5784C159.033 14.9258 158.971 15.4717 158.971 16.2161V26.8615C158.971 29.8144 159.554 31.998 160.721 33.4125C161.887 34.8269 163.537 35.5341 165.671 35.5341C167.731 35.5341 169.344 34.9137 170.51 33.673C171.676 32.4075 172.259 30.6084 172.259 28.2759V17.8911Z" fill="#B9B8EB"/>
<path d="M183.218 16.8861C183.218 17.7794 183.441 18.5735 183.888 19.2683C184.359 19.9631 184.93 20.571 185.6 21.0921C186.27 21.6132 187.175 22.246 188.317 22.9904C189.558 23.7845 190.55 24.4793 191.295 25.0748C192.039 25.6704 192.672 26.4024 193.193 27.2709C193.714 28.1146 193.975 29.0948 193.975 30.2114C193.975 31.5017 193.627 32.6556 192.932 33.673C192.238 34.6656 191.27 35.4472 190.029 36.018C188.813 36.5639 187.448 36.8368 185.935 36.8368C184.843 36.8368 183.677 36.6879 182.436 36.3902C181.22 36.0676 180.401 35.7202 179.979 35.348C179.855 35.2487 179.756 35.1619 179.681 35.0874C179.632 34.9882 179.607 34.8393 179.607 34.6408L179.495 28.7225V28.6853C179.495 28.5861 179.557 28.5364 179.681 28.5364C179.806 28.5116 179.88 28.5488 179.905 28.6481C180.649 30.1618 181.294 31.3901 181.84 32.333C182.411 33.276 183.118 34.1073 183.962 34.8269C184.83 35.5465 185.811 35.9063 186.902 35.9063C187.895 35.9063 188.714 35.6457 189.359 35.1246C190.004 34.5787 190.327 33.6606 190.327 32.3703C190.327 31.2784 190.079 30.3231 189.582 29.5042C189.111 28.6853 188.528 27.9905 187.833 27.4198C187.138 26.8491 186.183 26.1667 184.967 25.3726C183.776 24.6034 182.845 23.9458 182.175 23.3999C181.53 22.8539 180.972 22.1964 180.5 21.4271C180.029 20.6579 179.793 19.7522 179.793 18.71C179.793 17.3948 180.165 16.2906 180.91 15.3972C181.679 14.4791 182.659 13.8091 183.85 13.3873C185.041 12.9406 186.295 12.7173 187.61 12.7173C188.478 12.7173 189.359 12.8041 190.252 12.9778C191.146 13.1267 191.865 13.3128 192.411 13.5362C192.635 13.6354 192.783 13.7471 192.858 13.8712C192.932 13.9704 192.97 14.1069 192.97 14.2806V19.7522C192.97 19.8266 192.908 19.8886 192.783 19.9383C192.659 19.9631 192.585 19.9383 192.56 19.8638L192.262 19.1566C191.642 17.5933 190.91 16.2657 190.066 15.1739C189.247 14.0821 188.094 13.5362 186.605 13.5362C185.612 13.5362 184.793 13.8215 184.148 14.3923C183.528 14.963 183.218 15.7943 183.218 16.8861Z" fill="#B9B8EB"/>
<path d="M202.82 26.8242H213.54L213.801 27.8664H202.262L202.82 26.8242ZM222.585 35.9435C222.709 35.9435 222.771 36.018 222.771 36.1668C222.771 36.3157 222.709 36.3902 222.585 36.3902C222.089 36.3902 221.319 36.3654 220.277 36.3157C219.185 36.2661 218.404 36.2413 217.932 36.2413C217.312 36.2413 216.555 36.2661 215.662 36.3157C214.818 36.3654 214.148 36.3902 213.652 36.3902C213.552 36.3902 213.503 36.3157 213.503 36.1668C213.503 36.018 213.552 35.9435 213.652 35.9435C214.297 35.9435 214.756 35.8815 215.029 35.7574C215.327 35.6085 215.476 35.3604 215.476 35.013C215.476 34.5911 215.227 33.8839 214.731 32.8913L207.175 17.9655L208.999 14.7645L201.592 31.1047C201.269 31.8243 201.108 32.4943 201.108 33.1147C201.108 34.008 201.418 34.7028 202.039 35.1991C202.684 35.6954 203.54 35.9435 204.607 35.9435C204.731 35.9435 204.793 36.018 204.793 36.1668C204.793 36.3157 204.731 36.3902 204.607 36.3902C204.16 36.3902 203.515 36.3654 202.671 36.3157C201.728 36.2661 200.91 36.2413 200.215 36.2413C199.545 36.2413 198.738 36.2661 197.795 36.3157C196.952 36.3654 196.269 36.3902 195.748 36.3902C195.649 36.3902 195.599 36.3157 195.599 36.1668C195.599 36.018 195.649 35.9435 195.748 35.9435C196.443 35.9435 197.026 35.807 197.498 35.5341C197.969 35.2363 198.44 34.7276 198.912 34.008C199.383 33.2636 199.942 32.1717 200.587 30.7325L208.664 12.9778C208.714 12.9034 208.825 12.8662 208.999 12.8662C209.198 12.8662 209.309 12.9034 209.334 12.9778L218.639 31.2908C219.508 33.0526 220.227 34.2685 220.798 34.9385C221.369 35.6085 221.964 35.9435 222.585 35.9435Z" fill="#B9B8EB"/>
<path d="M88.2398 50.4786H86.0817C85.9541 49.8578 85.7308 49.3125 85.4117 48.8426C85.0984 48.3727 84.7156 47.9782 84.2631 47.6592C83.8164 47.3343 83.3204 47.0907 82.7751 46.9282C82.2298 46.7658 81.6612 46.6846 81.0695 46.6846C79.9905 46.6846 79.013 46.9572 78.137 47.5025C77.2669 48.0479 76.5736 48.8513 76.0573 49.9129C75.5468 50.9746 75.2916 52.2769 75.2916 53.82C75.2916 55.3631 75.5468 56.6655 76.0573 57.7271C76.5736 58.7887 77.2669 59.5922 78.137 60.1375C79.013 60.6828 79.9905 60.9555 81.0695 60.9555C81.6612 60.9555 82.2298 60.8743 82.7751 60.7118C83.3204 60.5494 83.8164 60.3086 84.2631 59.9896C84.7156 59.6647 85.0984 59.2673 85.4117 58.7974C85.7308 58.3217 85.9541 57.7764 86.0817 57.1615H88.2398C88.0774 58.0723 87.7815 58.8874 87.3522 59.6067C86.9229 60.326 86.3892 60.9381 85.7511 61.4428C85.113 61.9417 84.3965 62.3217 83.6017 62.5827C82.8128 62.8438 81.9687 62.9743 81.0695 62.9743C79.5496 62.9743 78.1979 62.603 77.0145 61.8605C75.8311 61.1179 74.9 60.0621 74.2212 58.693C73.5425 57.3239 73.2031 55.6996 73.2031 53.82C73.2031 51.9404 73.5425 50.3161 74.2212 48.947C74.9 47.578 75.8311 46.5221 77.0145 45.7796C78.1979 45.037 79.5496 44.6658 81.0695 44.6658C81.9687 44.6658 82.8128 44.7963 83.6017 45.0574C84.3965 45.3184 85.113 45.7013 85.7511 46.206C86.3892 46.7049 86.9229 47.314 87.3522 48.0334C87.7815 48.7469 88.0774 49.562 88.2398 50.4786Z" fill="#B9B8EB"/>
<path d="M100.299 62.7306H98.0368L104.581 44.9094H106.808L113.352 62.7306H111.09L105.764 47.7288H105.625L100.299 62.7306ZM101.135 55.7692H110.254V57.6836H101.135V55.7692Z" fill="#B9B8EB"/>
<path d="M123.969 62.7306V44.9094H129.991C131.389 44.9094 132.532 45.1618 133.419 45.6665C134.313 46.1654 134.974 46.8412 135.403 47.694C135.833 48.5468 136.047 49.4982 136.047 50.5482C136.047 51.5982 135.833 52.5525 135.403 53.411C134.98 54.2696 134.324 54.9542 133.437 55.4647C132.549 55.9694 131.412 56.2217 130.026 56.2217H125.71V54.3073H129.956C130.913 54.3073 131.682 54.142 132.262 53.8113C132.842 53.4807 133.263 53.034 133.524 52.4713C133.791 51.9027 133.924 51.2617 133.924 50.5482C133.924 49.8346 133.791 49.1965 133.524 48.6338C133.263 48.0711 132.839 47.6302 132.253 47.3111C131.667 46.9862 130.89 46.8238 129.921 46.8238H126.127V62.7306H123.969Z" fill="#B9B8EB"/>
<path d="M149.523 44.9094V62.7306H147.365V44.9094H149.523Z" fill="#B9B8EB"/>
<path d="M160.717 46.8238V44.9094H174.083V46.8238H168.479V62.7306H166.321V46.8238H160.717Z" fill="#B9B8EB"/>
<path d="M183.904 62.7306H181.641L188.185 44.9094H190.413L196.956 62.7306H194.694L189.368 47.7288H189.229L183.904 62.7306ZM184.739 55.7692H193.858V57.6836H184.739V55.7692Z" fill="#B9B8EB"/>
<path d="M207.573 62.7306V44.9094H209.731V60.8162H218.016V62.7306H207.573Z" fill="#B9B8EB"/>
</svg>
