<svg width="232" height="77" viewBox="0 0 232 77" fill="none" xmlns="http://www.w3.org/2000/svg">
<path d="M25.9868 36.8028C23.993 36.647 21.968 36.8028 19.9743 36.8547C20.0028 36.034 20.2562 35.2368 20.7066 34.5502C21.1571 33.8635 21.7874 33.3137 22.5288 32.9606C23.1156 32.595 23.6713 32.1817 24.1903 31.7249C23.0138 31.7324 21.8747 32.1393 20.9597 32.8788C20.0447 33.6184 19.408 34.6467 19.1539 35.7955C18.7282 37.3739 18.3024 38.9627 17.939 40.5619C17.7268 41.4065 17.6393 42.2776 17.6793 43.1476C17.8247 44.6948 18.1674 46.211 18.4166 47.6648L17.7209 47.0832C17.5859 48.3293 21.2308 52.4935 22.7157 52.7531C20.6389 49.0355 17.6897 45.6087 18.9255 40.8734C19.0722 40.924 19.2146 40.9866 19.3512 41.0603C20.2447 41.7188 21.2904 42.1404 22.3907 42.2856C23.4911 42.4309 24.6103 42.2952 25.6441 41.8911C26.0775 41.7469 26.5278 41.6596 26.9836 41.6315C29.8601 41.3303 30.0989 41.4861 30.6181 44.3314C30.719 44.1638 30.8025 43.9863 30.8674 43.8018C31.4177 40.8215 30.7635 37.1558 25.9868 36.8028ZM23.5361 40.6865C23.2399 40.7348 22.937 40.7214 22.6462 40.6473C22.3555 40.5731 22.0832 40.4398 21.8463 40.2556C21.6095 40.0713 21.4132 39.8402 21.2697 39.5767C21.1263 39.3131 21.0388 39.0228 21.0127 38.7239C24.9276 37.8724 27.2433 38.4123 27.9805 40.2919C26.5371 40.4269 25.0522 40.6138 23.5672 40.6865H23.5361Z" fill="#010052"/>
<path d="M32.9542 65.2772V66.2222C30.7888 66.1729 28.702 65.4018 27.0248 64.0311C23.3126 61.1105 20.4451 57.2538 18.7174 52.8576C18.5928 52.5461 18.5097 52.2138 18.3955 51.8919C18.5201 51.7984 23.9822 60.3239 27.4506 63.2212C28.9882 64.5292 30.9357 65.2567 32.9542 65.2772Z" fill="#010052"/>
<path d="M32.9544 24.799V27.125L32.8713 26.99C32.1724 28.3931 31.1372 29.6014 29.8581 30.5073C28.5789 31.4132 27.0955 31.9886 25.54 32.1822C25.9382 31.5816 26.4857 31.0949 27.1288 30.7699C28.2134 30.4125 29.2115 29.8326 30.059 29.0672C30.9066 28.3019 31.5851 27.3681 32.051 26.3255C32.269 25.8478 32.5598 25.4116 32.9233 24.7886L32.9544 24.799Z" fill="#010052"/>
<path d="M32.9539 51.1637V53.9571C31.8324 53.9571 29.3609 51.8802 29.1221 50.5199C30.3305 51.0344 31.6437 51.255 32.9539 51.1637Z" fill="#010052"/>
<path d="M32.9541 55.6092V57.2084H27.3154C29.0206 56.1863 30.9662 55.6345 32.9541 55.6092Z" fill="#010052"/>
<path d="M32.9539 58.9001V61.1431C32.2015 61.0878 31.4728 60.8559 30.8269 60.4662C30.1809 60.0765 29.636 59.5399 29.2363 58.9001H32.9539Z" fill="#010052"/>
<path d="M34.9792 43.7707C35.0353 43.9569 35.1156 44.1349 35.2181 44.3002C35.7788 41.4549 35.9761 41.2992 38.8526 41.6003C39.3084 41.6285 39.7587 41.7158 40.1921 41.8599C41.2257 42.265 42.3451 42.4012 43.4457 42.2559C44.5462 42.1107 45.5919 41.6886 46.485 41.0292C46.6225 40.9574 46.7648 40.8949 46.9108 40.8423C48.1465 45.5775 45.2493 49.0043 43.1205 52.7219C44.6054 52.4623 48.2503 48.2982 48.1257 47.0521L47.4196 47.6336C47.6688 46.1798 48.0115 44.6637 48.1569 43.1164C48.1861 42.2403 48.0811 41.3647 47.8453 40.5204C47.4923 38.9212 47.0561 37.3324 46.6304 35.754C46.3669 34.6077 45.7221 33.5848 44.8015 32.8529C43.8809 32.1209 42.739 31.7232 41.5629 31.7249C42.0703 32.1947 42.6156 32.6219 43.1932 33.0021C43.9361 33.3533 44.5676 33.9027 45.0183 34.5898C45.4691 35.2768 45.7214 36.0749 45.7477 36.8962C43.7539 36.8962 41.729 36.6885 39.7456 36.8443C35.0208 37.1558 34.3769 40.8215 34.9792 43.7707ZM37.783 40.2919C38.5099 38.4123 40.8256 37.8724 44.7404 38.7239C44.7143 39.0228 44.6268 39.3131 44.4834 39.5767C44.34 39.8402 44.1437 40.0714 43.9068 40.2556C43.67 40.4398 43.3976 40.5731 43.1069 40.6473C42.8161 40.7214 42.5132 40.7348 42.2171 40.6865C40.7321 40.6138 39.2576 40.4269 37.783 40.2919Z" fill="#010052"/>
<path d="M32.8291 65.2772V66.2222C35.0055 66.1814 37.105 65.4097 38.7897 64.0311C42.502 61.1105 45.3694 57.2538 47.0971 52.8576C47.2217 52.5461 47.3048 52.2138 47.419 51.8919C47.2944 51.7984 41.8323 60.3239 38.3743 63.2212C36.8249 64.5367 34.8617 65.2647 32.8291 65.2772Z" fill="#010052"/>
<path d="M32.8291 24.799V27.125L32.9122 26.99C33.6111 28.3931 34.6463 29.6014 35.9254 30.5073C37.2046 31.4132 38.688 31.9886 40.2435 32.1822C39.8453 31.5816 39.2978 31.0949 38.6547 30.7699C37.5714 30.4124 36.5748 29.8323 35.729 29.0669C34.8831 28.3015 34.2066 27.3677 33.7429 26.3255C33.5145 25.8478 33.2237 25.4116 32.8603 24.7886L32.8291 24.799Z" fill="#010052"/>
<path d="M32.8291 51.1637V53.9571C33.961 53.9571 36.4221 51.8802 36.6609 50.5199C35.4525 51.0344 34.1393 51.255 32.8291 51.1637Z" fill="#010052"/>
<path d="M32.8291 55.6092V57.2084H38.447C36.7479 56.1898 34.8099 55.6382 32.8291 55.6092Z" fill="#010052"/>
<path d="M32.8291 58.9001V61.1431C33.5815 61.0878 34.3102 60.8559 34.9562 60.4662C35.6021 60.0765 36.147 59.5399 36.5467 58.9001H32.8291Z" fill="#010052"/>
<path d="M30.5967 77L26.5572 74.6116L3.19263 60.8005C2.17093 60.3986 1.30856 59.6738 0.73681 58.7365C0.165061 57.7992 -0.0847455 56.7007 0.0254269 55.6084C0.0254269 48.3601 0.0254269 41.1153 0.0254269 33.874C0.0343652 33.1206 0.252789 32.3845 0.656257 31.7481C1.05972 31.1117 1.63232 30.6002 2.30997 30.2707L17.5852 21.1948C19.2052 20.2325 20.8216 19.2633 22.4347 18.2872C22.6277 18.1402 22.8601 18.0539 23.1022 18.0391C23.3444 18.0243 23.5855 18.0817 23.795 18.2041L30.1398 21.8802L27.388 23.4793C21.1574 27.1069 14.9268 30.7276 8.69629 34.3413C8.13105 34.6328 7.66304 35.0827 7.34951 35.636C7.03597 36.1893 6.89053 36.8219 6.93096 37.4566C6.93096 42.5865 6.93096 47.7163 6.93096 52.8461C6.93096 53.0227 6.93096 53.2096 6.93096 53.3861C6.90826 53.9531 7.05138 54.5144 7.34279 55.0014C7.6342 55.4883 8.06126 55.8796 8.57168 56.1276C15.4945 60.2051 22.4174 64.3035 29.3402 68.4226C29.7763 68.6822 30.3786 68.8795 30.5863 69.2637C30.794 69.6479 30.6486 70.2398 30.6486 70.7383L30.5967 77Z" fill="#010052"/>
<path d="M32.8919 11.0183V19.0246L24.7195 14.2062C24.2977 13.9267 23.8029 13.7776 23.2969 13.7776C22.7909 13.7776 22.296 13.9267 21.8742 14.2062L13.2761 19.2115C8.91468 21.7764 4.5429 24.3205 0.171124 26.8855L0.0465136 26.9374C0.0465136 24.9955 -0.00540768 23.0952 0.0465136 21.1845C0.0837704 20.4698 0.305073 19.7768 0.688962 19.1727C1.07285 18.5687 1.6063 18.0741 2.23759 17.7369C8.68968 13.8947 15.1452 10.0698 21.6042 6.26225C22.0869 5.94511 22.6518 5.77612 23.2294 5.77612C23.8069 5.77612 24.3719 5.94511 24.8545 6.26225L32.8919 11.0183Z" fill="#010052"/>
<path d="M32.8931 0V6.40712L27.701 3.29183L27.4414 3.11529L29.4352 1.93148C30.3905 1.37073 31.3459 0.789212 32.322 0.249229C32.5047 0.149484 32.6958 0.0660787 32.8931 0Z" fill="#010052"/>
<path d="M20.2015 58.3918L19.8485 58.2257C17.6055 56.9173 15.3625 55.6192 13.1299 54.3004C12.664 53.983 12.2658 53.5763 11.9584 53.1038C11.651 52.6313 11.4405 52.1025 11.339 51.548C11.2376 50.9935 11.2473 50.4244 11.3675 49.8737C11.4878 49.3229 11.7162 48.8016 12.0395 48.3398C12.3822 47.9245 12.8079 47.5714 13.1922 47.1872C14.3305 45.9231 15.014 44.315 15.134 42.6181C15.182 42.2185 15.2725 41.8251 15.404 41.4446C15.4449 41.3604 15.5063 41.2878 15.5824 41.2334C15.6586 41.179 15.7472 41.1445 15.8402 41.1331C15.9544 41.1331 16.1205 41.372 16.1724 41.5277C16.4009 42.1508 16.567 42.7946 16.7955 43.4073C16.9713 44.0523 16.9349 44.7368 16.6917 45.3595C16.4303 46.516 15.8085 47.5595 14.9159 48.3398C13.0572 49.8663 13.6698 53.2101 16.3905 54.1343C17.069 54.374 17.7144 54.6985 18.3116 55.1C18.6353 55.366 18.8975 55.699 19.08 56.0761C19.4746 56.8342 19.8069 57.5818 20.2015 58.3918Z" fill="#010052"/>
<path d="M19.5059 31.9846C19.2769 33.236 18.6549 34.3818 17.7302 35.2556C16.6294 36.1902 15.5703 37.1559 14.428 38.0178C12.9903 39.1255 11.9457 40.6651 11.4477 42.4104C11.435 42.4516 11.4136 42.4897 11.3849 42.5219C11.3563 42.5542 11.321 42.5799 11.2815 42.5973C11.2815 42.3689 11.2815 42.1404 11.2815 41.9223C11.2815 40.9981 11.2815 40.0739 11.2815 39.1497C11.2358 38.5523 11.3634 37.9544 11.6488 37.4277C11.9343 36.9009 12.3656 36.4676 12.8911 36.1798C14.3449 35.2868 15.7918 34.3833 17.2317 33.4695C17.8236 33.0957 18.4155 32.6907 19.0074 32.3065C19.1528 32.1922 19.3294 32.0884 19.5059 31.9846Z" fill="#010052"/>
<path d="M34.9801 77L39.0196 74.6116L62.3322 60.8005C63.4903 60.2649 64.4471 59.3736 65.0633 58.2564C65.4107 57.4187 65.5668 56.514 65.5202 55.6084C65.5202 48.3601 65.5202 41.1153 65.5202 33.874C65.5068 33.1203 65.2854 32.3849 64.8804 31.749C64.4754 31.1132 63.9027 30.6016 63.2253 30.2707L47.95 21.1948L43.1006 18.2872C42.9075 18.1402 42.6752 18.0539 42.433 18.0391C42.1909 18.0243 41.9497 18.0817 41.7402 18.2041L35.4474 21.8802L38.1992 23.4793C44.4298 27.1069 50.6603 30.7276 56.8909 34.3413C57.4555 34.6344 57.9234 35.0843 58.2384 35.6369C58.5534 36.1896 58.7021 36.8215 58.6666 37.4566C58.6666 42.5865 58.6666 47.7163 58.6666 52.8461C58.6666 53.0227 58.6666 53.2096 58.6666 53.3861C58.6893 53.9531 58.5462 54.5144 58.2548 55.0014C57.9634 55.4883 57.5363 55.8796 57.0259 56.1276C50.103 60.2051 43.1802 64.3035 36.2574 68.4226C35.8212 68.6822 35.2189 68.8795 35.0112 69.2637C34.8036 69.6479 35.0112 70.2398 35.0112 70.7383C34.9697 72.7632 34.9801 74.8401 34.9801 77Z" fill="#010052"/>
<path d="M32.6738 11.0188V19.0251L40.8462 14.2068C41.2701 13.9276 41.7665 13.7789 42.2741 13.7789C42.7816 13.7789 43.278 13.9276 43.7019 14.2068L52.2897 19.212L65.4466 26.8653L65.5608 26.9172C65.5608 24.9753 65.6231 23.075 65.5608 21.1643C65.5225 20.4485 65.2996 19.7548 64.9139 19.1507C64.5281 18.5466 63.9926 18.0526 63.3593 17.7167C56.9072 13.8745 50.4517 10.0496 43.9927 6.24204C43.51 5.9249 42.9451 5.75592 42.3675 5.75592C41.79 5.75592 41.2251 5.9249 40.7424 6.24204L32.6738 11.0188Z" fill="#010052"/>
<path d="M32.6738 0V6.40712L37.866 3.29183L38.1256 3.11529L36.1422 1.93148C35.1764 1.37073 34.2211 0.789212 33.245 0.249229C33.0623 0.149484 32.8712 0.0660787 32.6738 0Z" fill="#010052"/>
<path d="M45.3633 58.3916L45.7267 58.2255C47.9593 56.9171 50.2023 55.619 52.435 54.3002C53.3664 53.6593 54.0055 52.6749 54.2119 51.5632C54.4183 50.4515 54.1751 49.3033 53.5357 48.3708C53.1826 47.9554 52.7569 47.6023 52.3727 47.2181C51.2343 45.954 50.5508 44.3459 50.4308 42.649C50.3863 42.2498 50.2993 41.8564 50.1712 41.4756C50.1278 41.3912 50.0645 41.3186 49.9866 41.2643C49.9088 41.21 49.8189 41.1756 49.7247 41.1641C49.6104 41.1641 49.4547 41.4029 49.3924 41.5587C49.1743 42.1817 48.9978 42.8256 48.7693 43.4382C48.5936 44.0833 48.63 44.7677 48.8732 45.3905C49.1324 46.5507 49.7544 47.5981 50.6489 48.3811C52.5077 49.9076 51.895 53.2514 49.1743 54.1756C48.4991 54.4154 47.8571 54.7399 47.2636 55.1413C46.934 55.4015 46.6706 55.736 46.4952 56.1175C46.1006 56.834 45.7163 57.5816 45.3633 58.3916Z" fill="#010052"/>
<path d="M46.0586 31.9846C46.2869 33.2385 46.9132 34.3856 47.8447 35.2556C48.8831 36.1902 49.9942 37.1559 51.1365 38.0178C52.5896 39.1193 53.6492 40.6595 54.1583 42.4104C54.171 42.4516 54.1924 42.4897 54.2211 42.5219C54.2497 42.5542 54.285 42.5799 54.3245 42.5973C54.3245 42.3689 54.3245 42.1404 54.3245 41.9223C54.3245 40.9981 54.3245 40.0739 54.3245 39.1497C54.3702 38.5523 54.2426 37.9544 53.9572 37.4277C53.6717 36.9009 53.2404 36.4676 52.7149 36.1798C51.2715 35.2868 49.8177 34.3833 48.3847 33.4695C47.7824 33.0957 47.2009 32.6907 46.609 32.3065L46.0586 31.9846Z" fill="#010052"/>
<path d="M79.2927 18.7906L80.4186 18.8682L79.9916 37.2318C79.9657 38.6294 80.2374 39.7294 80.8069 40.5318C81.4021 41.3082 82.2304 41.6965 83.2915 41.6965C83.3692 41.6965 83.408 41.7741 83.408 41.9294C83.408 42.0847 83.3692 42.1624 83.2915 42.1624C82.5927 42.1624 82.0492 42.1494 81.661 42.1235L79.5257 42.0847L77.0798 42.1235C76.6657 42.1494 76.1092 42.1624 75.4104 42.1624C75.3328 42.1624 75.2939 42.0847 75.2939 41.9294C75.2939 41.7741 75.3328 41.6965 75.4104 41.6965C76.4716 41.6965 77.3128 41.2953 77.9339 40.4929C78.5551 39.6906 78.8786 38.6035 78.9045 37.2318L79.2927 18.7906ZM106.702 41.6965C106.754 41.6965 106.78 41.7741 106.78 41.9294C106.78 42.0847 106.754 42.1624 106.702 42.1624C105.822 42.1624 105.123 42.1494 104.606 42.1235L101.733 42.0847L98.8209 42.1235C98.3291 42.1494 97.6562 42.1624 96.802 42.1624C96.7244 42.1624 96.6856 42.0847 96.6856 41.9294C96.6856 41.7741 96.7244 41.6965 96.802 41.6965C97.6303 41.6965 98.2385 41.6318 98.6267 41.5024C99.0409 41.3471 99.3126 41.0882 99.442 40.7259C99.5714 40.3635 99.6103 39.7941 99.5585 39.0177L98.6656 21.78L100.646 18.6741L90.7456 41.8906C90.6939 41.9941 90.5903 42.0459 90.435 42.0459C90.2797 42.0459 90.1762 41.9941 90.1244 41.8906L79.2151 21.12C78.6975 20.1623 78.1539 19.4635 77.5845 19.0235C77.041 18.5835 76.4069 18.3635 75.6822 18.3635C75.6045 18.3635 75.5657 18.2859 75.5657 18.1306C75.5657 17.9753 75.6045 17.8976 75.6822 17.8976L77.5069 17.9365C77.8692 17.9623 78.3351 17.9753 78.9045 17.9753L80.9621 17.9365C81.1951 17.9106 81.4927 17.8976 81.8551 17.8976C82.1916 17.8976 82.4504 18.0141 82.6315 18.2471C82.8127 18.48 83.1492 19.0365 83.641 19.9165L92.3374 36.2224L90.3962 39.7165L99.4809 18.8682C99.6362 18.5059 99.7914 18.26 99.9467 18.1306C100.128 17.9753 100.361 17.8976 100.646 17.8976C100.878 17.8976 101.137 17.9106 101.422 17.9365C101.733 17.9623 102.082 17.9753 102.47 17.9753L104.761 17.9365C105.123 17.9106 105.641 17.8976 106.314 17.8976C106.391 17.8976 106.43 17.9753 106.43 18.1306C106.43 18.2859 106.391 18.3635 106.314 18.3635C105.097 18.3635 104.217 18.6094 103.674 19.1012C103.13 19.5929 102.884 20.3565 102.936 21.3918L103.868 39.0177C103.92 39.82 104.01 40.4024 104.14 40.7647C104.295 41.1271 104.554 41.3729 104.916 41.5024C105.304 41.6318 105.9 41.6965 106.702 41.6965Z" fill="#010052"/>
<path d="M109.242 42.1624C109.164 42.1624 109.125 42.0847 109.125 41.9294C109.125 41.7741 109.164 41.6965 109.242 41.6965C110.07 41.6965 110.665 41.6318 111.028 41.5024C111.416 41.3729 111.675 41.1271 111.804 40.7647C111.934 40.3765 111.998 39.7941 111.998 39.0177V21.0423C111.998 20.2659 111.934 19.6965 111.804 19.3341C111.675 18.9718 111.416 18.7259 111.028 18.5965C110.64 18.4412 110.044 18.3635 109.242 18.3635C109.164 18.3635 109.125 18.2859 109.125 18.1306C109.125 17.9753 109.164 17.8976 109.242 17.8976H125.703C125.962 17.8976 126.091 18.0141 126.091 18.2471L126.169 23.4106C126.169 23.4623 126.091 23.5012 125.936 23.5271C125.806 23.5529 125.729 23.5271 125.703 23.4494C125.289 21.9482 124.59 20.8353 123.606 20.1106C122.623 19.3859 121.329 19.0235 119.724 19.0235H118.559C117.783 19.0235 117.214 19.1918 116.851 19.5282C116.489 19.8647 116.308 20.3823 116.308 21.0812V38.8624C116.308 39.6129 116.45 40.1694 116.735 40.5318C117.019 40.8941 117.472 41.0753 118.094 41.0753H119.375C121.394 41.0753 123.011 40.6612 124.228 39.8329C125.444 39.0047 126.337 37.7235 126.906 35.9894C126.906 35.9376 126.958 35.9118 127.062 35.9118C127.139 35.9118 127.204 35.9376 127.256 35.9894C127.334 36.0153 127.372 36.0412 127.372 36.0671C127.114 38.0859 126.984 39.9235 126.984 41.58C126.984 41.7871 126.945 41.9424 126.868 42.0459C126.79 42.1235 126.635 42.1624 126.402 42.1624H109.242ZM124.228 33.5047C124.228 32.4435 123.814 31.6153 122.985 31.02C122.183 30.3988 121.018 30.0882 119.491 30.0882H114.25V29.0012H119.53C121.031 29.0012 122.183 28.7424 122.985 28.2247C123.788 27.7071 124.189 26.9824 124.189 26.0506C124.189 25.9729 124.254 25.9341 124.383 25.9341C124.538 25.9341 124.616 25.9729 124.616 26.0506L124.577 29.5447L124.616 31.4082C124.668 32.2882 124.694 32.9871 124.694 33.5047C124.694 33.5565 124.616 33.5824 124.461 33.5824C124.305 33.5824 124.228 33.5565 124.228 33.5047Z" fill="#010052"/>
<path d="M141.728 42.3177C140.899 42.3177 139.916 42.2788 138.777 42.2012C138.363 42.1753 137.845 42.1494 137.224 42.1235C136.629 42.0977 135.956 42.0847 135.205 42.0847L132.332 42.1235C131.815 42.1494 131.116 42.1624 130.236 42.1624C130.184 42.1624 130.158 42.0847 130.158 41.9294C130.158 41.7741 130.184 41.6965 130.236 41.6965C131.064 41.6965 131.672 41.6318 132.061 41.5024C132.449 41.3729 132.708 41.1271 132.837 40.7647C132.992 40.3765 133.07 39.7941 133.07 39.0177V21.0423C133.07 20.2659 132.992 19.6965 132.837 19.3341C132.708 18.9718 132.449 18.7259 132.061 18.5965C131.698 18.4412 131.116 18.3635 130.314 18.3635C130.236 18.3635 130.197 18.2859 130.197 18.1306C130.197 17.9753 130.236 17.8976 130.314 17.8976L132.371 17.9365C133.562 17.9882 134.506 18.0141 135.205 18.0141C136.266 18.0141 137.353 17.9753 138.466 17.8976C139.812 17.8459 140.718 17.82 141.184 17.82C143.798 17.82 146.115 18.3376 148.133 19.3729C150.178 20.4082 151.757 21.8188 152.87 23.6047C153.983 25.3906 154.539 27.3965 154.539 29.6224C154.539 32.1329 153.957 34.3588 152.792 36.3C151.653 38.2153 150.1 39.7035 148.133 40.7647C146.192 41.8 144.057 42.3177 141.728 42.3177ZM141.339 41.4247C142.996 41.4247 144.458 41.0106 145.726 40.1824C146.995 39.3282 147.978 38.0729 148.677 36.4165C149.402 34.76 149.764 32.78 149.764 30.4765C149.764 28.2765 149.428 26.2835 148.755 24.4976C148.082 22.6859 147.124 21.2623 145.882 20.2271C144.639 19.1918 143.203 18.6741 141.572 18.6741C139.968 18.6741 138.868 18.8294 138.272 19.14C137.677 19.4506 137.379 20.1106 137.379 21.12V38.5906C137.379 39.6259 137.651 40.3635 138.195 40.8035C138.738 41.2176 139.786 41.4247 141.339 41.4247Z" fill="#010052"/>
<path d="M178.613 22.8671C178.613 21.4694 178.289 20.3694 177.642 19.5671C177.021 18.7647 176.141 18.3635 175.002 18.3635C174.95 18.3635 174.925 18.2859 174.925 18.1306C174.925 17.9753 174.95 17.8976 175.002 17.8976L176.866 17.9365C177.849 17.9882 178.639 18.0141 179.234 18.0141C179.726 18.0141 180.437 17.9882 181.369 17.9365L183.155 17.8976C183.207 17.8976 183.233 17.9753 183.233 18.1306C183.233 18.2859 183.207 18.3635 183.155 18.3635C182.146 18.3635 181.356 18.7647 180.787 19.5671C180.217 20.3694 179.933 21.4694 179.933 22.8671V33.66C179.933 35.4718 179.532 37.0635 178.729 38.4353C177.927 39.8071 176.788 40.8682 175.313 41.6188C173.863 42.3435 172.181 42.7059 170.266 42.7059C168.35 42.7059 166.655 42.3435 165.18 41.6188C163.705 40.8941 162.54 39.8459 161.686 38.4741C160.858 37.0765 160.443 35.4459 160.443 33.5824V21.0423C160.443 20.2659 160.366 19.6965 160.21 19.3341C160.081 18.9718 159.822 18.7259 159.434 18.5965C159.072 18.4412 158.489 18.3635 157.687 18.3635C157.609 18.3635 157.571 18.2859 157.571 18.1306C157.571 17.9753 157.609 17.8976 157.687 17.8976L159.745 17.9365C160.935 17.9882 161.88 18.0141 162.579 18.0141C163.355 18.0141 164.339 17.9882 165.529 17.9365L167.509 17.8976C167.587 17.8976 167.626 17.9753 167.626 18.1306C167.626 18.2859 167.587 18.3635 167.509 18.3635C166.707 18.3635 166.112 18.4412 165.723 18.5965C165.361 18.7518 165.102 19.0235 164.947 19.4118C164.818 19.7741 164.753 20.3435 164.753 21.12V32.2235C164.753 35.3035 165.361 37.5812 166.578 39.0565C167.794 40.5318 169.515 41.2694 171.741 41.2694C173.889 41.2694 175.572 40.6224 176.788 39.3282C178.005 38.0082 178.613 36.1318 178.613 33.6988V22.8671Z" fill="#010052"/>
<path d="M190.043 21.8188C190.043 22.7506 190.275 23.5788 190.741 24.3035C191.233 25.0282 191.828 25.6624 192.527 26.2059C193.226 26.7494 194.171 27.4094 195.361 28.1859C196.655 29.0141 197.691 29.7388 198.467 30.36C199.244 30.9812 199.904 31.7447 200.447 32.6506C200.991 33.5306 201.262 34.5529 201.262 35.7176C201.262 37.0635 200.9 38.2671 200.175 39.3282C199.451 40.3635 198.441 41.1788 197.147 41.7741C195.879 42.3435 194.455 42.6282 192.877 42.6282C191.738 42.6282 190.521 42.4729 189.227 42.1624C187.959 41.8259 187.105 41.4635 186.665 41.0753C186.536 40.9718 186.432 40.8812 186.354 40.8035C186.303 40.7 186.277 40.5447 186.277 40.3377L186.16 34.1647V34.1259C186.16 34.0224 186.225 33.9706 186.354 33.9706C186.484 33.9447 186.561 33.9835 186.587 34.0871C187.364 35.6659 188.037 36.9471 188.606 37.9306C189.201 38.9141 189.939 39.7812 190.819 40.5318C191.725 41.2824 192.747 41.6576 193.886 41.6576C194.921 41.6576 195.775 41.3859 196.448 40.8424C197.121 40.2729 197.458 39.3153 197.458 37.9694C197.458 36.8306 197.199 35.8341 196.681 34.98C196.19 34.1259 195.581 33.4012 194.857 32.8059C194.132 32.2106 193.135 31.4988 191.867 30.6706C190.625 29.8682 189.654 29.1824 188.956 28.6129C188.283 28.0435 187.7 27.3576 187.208 26.5553C186.717 25.7529 186.471 24.8082 186.471 23.7212C186.471 22.3494 186.859 21.1976 187.636 20.2659C188.438 19.3082 189.46 18.6094 190.703 18.1694C191.945 17.7035 193.252 17.4706 194.624 17.4706C195.53 17.4706 196.448 17.5612 197.38 17.7423C198.312 17.8976 199.062 18.0918 199.632 18.3247C199.865 18.4282 200.02 18.5447 200.098 18.6741C200.175 18.7776 200.214 18.92 200.214 19.1012V24.8082C200.214 24.8859 200.15 24.9506 200.02 25.0023C199.891 25.0282 199.813 25.0023 199.787 24.9247L199.477 24.1871C198.83 22.5565 198.066 21.1718 197.186 20.0329C196.332 18.8941 195.128 18.3247 193.575 18.3247C192.54 18.3247 191.686 18.6223 191.013 19.2176C190.366 19.8129 190.043 20.68 190.043 21.8188Z" fill="#010052"/>
<path d="M210.489 32.1847H221.67L221.942 33.2718H209.906L210.489 32.1847ZM231.104 41.6965C231.233 41.6965 231.298 41.7741 231.298 41.9294C231.298 42.0847 231.233 42.1624 231.104 42.1624C230.586 42.1624 229.784 42.1365 228.697 42.0847C227.558 42.0329 226.743 42.0071 226.251 42.0071C225.604 42.0071 224.815 42.0329 223.883 42.0847C223.003 42.1365 222.304 42.1624 221.786 42.1624C221.683 42.1624 221.631 42.0847 221.631 41.9294C221.631 41.7741 221.683 41.6965 221.786 41.6965C222.459 41.6965 222.938 41.6318 223.223 41.5024C223.533 41.3471 223.689 41.0882 223.689 40.7259C223.689 40.2859 223.43 39.5482 222.912 38.5129L215.031 22.9447L216.933 19.6059L209.208 36.6494C208.871 37.4 208.703 38.0988 208.703 38.7459C208.703 39.6777 209.026 40.4024 209.673 40.92C210.346 41.4377 211.239 41.6965 212.352 41.6965C212.482 41.6965 212.546 41.7741 212.546 41.9294C212.546 42.0847 212.482 42.1624 212.352 42.1624C211.886 42.1624 211.213 42.1365 210.333 42.0847C209.35 42.0329 208.496 42.0071 207.771 42.0071C207.072 42.0071 206.231 42.0329 205.248 42.0847C204.368 42.1365 203.656 42.1624 203.112 42.1624C203.009 42.1624 202.957 42.0847 202.957 41.9294C202.957 41.7741 203.009 41.6965 203.112 41.6965C203.837 41.6965 204.445 41.5541 204.937 41.2694C205.429 40.9588 205.921 40.4282 206.412 39.6777C206.904 38.9012 207.486 37.7624 208.159 36.2612L216.584 17.7423C216.636 17.6647 216.752 17.6259 216.933 17.6259C217.141 17.6259 217.257 17.6647 217.283 17.7423L226.989 36.8435C227.895 38.6812 228.645 39.9494 229.24 40.6482C229.836 41.3471 230.457 41.6965 231.104 41.6965Z" fill="#010052"/>
<path d="M90.9777 56.8571H88.7268C88.5936 56.2096 88.3607 55.6409 88.0279 55.1507C87.7012 54.6606 87.3018 54.2492 86.8298 53.9164C86.3639 53.5775 85.8466 53.3234 85.2778 53.154C84.709 52.9845 84.116 52.8998 83.4989 52.8998C82.3734 52.8998 81.3538 53.1842 80.4402 53.753C79.5325 54.3218 78.8095 55.1598 78.2709 56.2671C77.7385 57.3744 77.4722 58.7329 77.4722 60.3424C77.4722 61.9519 77.7385 63.3103 78.2709 64.4176C78.8095 65.5249 79.5325 66.363 80.4402 66.9318C81.3538 67.5006 82.3734 67.7849 83.4989 67.7849C84.116 67.7849 84.709 67.7002 85.2778 67.5308C85.8466 67.3614 86.3639 67.1103 86.8298 66.7775C87.3018 66.4386 87.7012 66.0241 88.0279 65.534C88.3607 65.0379 88.5936 64.4691 88.7268 63.8277H90.9777C90.8083 64.7777 90.4997 65.6278 90.0519 66.3781C89.6041 67.1284 89.0475 67.7668 88.3819 68.2932C87.7163 68.8136 86.969 69.2099 86.14 69.4822C85.3171 69.7545 84.4367 69.8906 83.4989 69.8906C81.9135 69.8906 80.5037 69.5034 79.2693 68.7289C78.035 67.9544 77.0638 66.8531 76.3559 65.4251C75.6479 63.9971 75.2939 62.3029 75.2939 60.3424C75.2939 58.3819 75.6479 56.6877 76.3559 55.2597C77.0638 53.8317 78.035 52.7304 79.2693 51.9559C80.5037 51.1814 81.9135 50.7941 83.4989 50.7941C84.4367 50.7941 85.3171 50.9303 86.14 51.2026C86.969 51.4749 87.7163 51.8742 88.3819 52.4006C89.0475 52.921 89.6041 53.5563 90.0519 54.3067C90.4997 55.0509 90.8083 55.9011 90.9777 56.8571Z" fill="#010052"/>
<path d="M103.556 69.6365H101.196L108.022 51.0483H110.345L117.17 69.6365H114.811L109.256 53.989H109.111L103.556 69.6365ZM104.427 62.3755H113.939V64.3723H104.427V62.3755Z" fill="#010052"/>
<path d="M128.245 69.6365V51.0483H134.525C135.984 51.0483 137.176 51.3115 138.101 51.8379C139.033 52.3583 139.723 53.0632 140.171 53.9527C140.619 54.8422 140.842 55.8345 140.842 56.9297C140.842 58.0249 140.619 59.0203 140.171 59.9158C139.729 60.8113 139.045 61.5253 138.12 62.0578C137.194 62.5842 136.008 62.8474 134.562 62.8474H130.06V60.8507H134.489C135.487 60.8507 136.289 60.6782 136.894 60.3333C137.499 59.9884 137.938 59.5225 138.21 58.9356C138.489 58.3426 138.628 57.674 138.628 56.9297C138.628 56.1854 138.489 55.5199 138.21 54.9329C137.938 54.346 137.496 53.8861 136.885 53.5533C136.274 53.2145 135.463 53.045 134.453 53.045H130.495V69.6365H128.245Z" fill="#010052"/>
<path d="M154.898 51.0483V69.6365H152.647V51.0483H154.898Z" fill="#010052"/>
<path d="M166.573 53.045V51.0483H180.515V53.045H174.669V69.6365H172.419V53.045H166.573Z" fill="#010052"/>
<path d="M190.758 69.6365H188.398L195.224 51.0483H197.547L204.372 69.6365H202.013L196.458 53.989H196.313L190.758 69.6365ZM191.629 62.3755H201.141V64.3723H191.629V62.3755Z" fill="#010052"/>
<path d="M215.447 69.6365V51.0483H217.697V67.6397H226.338V69.6365H215.447Z" fill="#010052"/>
</svg>
